<svg width="20" height="18" viewBox="0 0 20 18" fill="none" xmlns="http://www.w3.org/2000/svg">
<path d="M15.8333 0L11.6666 4.16667V13.3333L15.8333 9.58333V0ZM0.833252 4.16667V16.375C0.833252 16.5833 1.04159 16.7917 1.24992 16.7917C1.33325 16.7917 1.37492 16.75 1.45825 16.75C2.58325 16.2083 4.20825 15.8333 5.41659 15.8333C7.04159 15.8333 8.79159 16.1667 9.99992 17.0833V4.16667C8.79159 3.25 7.04159 2.91667 5.41659 2.91667C3.79159 2.91667 2.04159 3.25 0.833252 4.16667ZM19.1666 15.4167V4.16667C18.6666 3.79167 18.1249 3.54167 17.4999 3.33333V14.5833C16.5833 14.2917 15.5833 14.1667 14.5833 14.1667C13.1666 14.1667 11.1249 14.7083 9.99992 15.4167V17.0833C11.1249 16.375 13.1666 15.8333 14.5833 15.8333C15.9583 15.8333 17.3749 16.0833 18.5416 16.7083C18.6249 16.75 18.6666 16.75 18.7499 16.75C18.9583 16.75 19.1666 16.5417 19.1666 16.3333V15.4167Z" fill="#4E4152"/>
</svg>
