<svg width="13" height="13" viewBox="0 0 13 13" fill="none" xmlns="http://www.w3.org/2000/svg">
<g clip-path="url(#clip0_634_744)">
<path d="M12.7317 12.4531H1.26852C1.12949 12.4528 0.996239 12.3974 0.898017 12.299C0.799794 12.2006 0.744629 12.0673 0.744629 11.9282V1.00128C0.744629 0.932359 0.758204 0.864111 0.78458 0.800434C0.810956 0.736757 0.849616 0.678899 0.898352 0.630163C0.947088 0.581427 1.00495 0.542767 1.06862 0.516392C1.1323 0.490016 1.20055 0.47644 1.26947 0.47644C1.33839 0.47644 1.40664 0.490016 1.47032 0.516392C1.534 0.542767 1.59185 0.581427 1.64059 0.630163C1.68933 0.678899 1.72799 0.736757 1.75436 0.800434C1.78074 0.864111 1.79431 0.932359 1.79431 1.00128V11.4034H12.7307C12.8699 11.4034 13.0034 11.4587 13.1019 11.5571C13.2003 11.6555 13.2556 11.789 13.2556 11.9282C13.2556 12.0674 13.2003 12.2009 13.1019 12.2993C13.0034 12.3978 12.8699 12.4531 12.7307 12.4531H12.7317ZM2.85158 10.3348V4.52549C2.85183 4.40622 2.89932 4.29191 2.98365 4.20757C3.06799 4.12323 3.18231 4.07574 3.30158 4.07549H4.04621C4.16548 4.07574 4.27979 4.12323 4.36413 4.20757C4.44847 4.29191 4.49596 4.40622 4.49621 4.52549V10.3348H2.85158ZM5.49 10.3348V1.32244C5.49025 1.20317 5.53774 1.08886 5.62208 1.00452C5.70641 0.920182 5.82073 0.872691 5.94 0.87244H6.68463C6.8039 0.872691 6.91821 0.920182 7.00255 1.00452C7.08689 1.08886 7.13438 1.20317 7.13463 1.32244V10.3348H5.49ZM8.12842 10.3348V4.52549C8.12867 4.40622 8.17616 4.29191 8.2605 4.20757C8.34483 4.12323 8.45915 4.07574 8.57842 4.07549H9.32305C9.44232 4.07574 9.55663 4.12323 9.64097 4.20757C9.72531 4.29191 9.7728 4.40622 9.77305 4.52549V10.3348H8.12842ZM10.7678 10.3348V7.72665C10.768 7.60738 10.8155 7.49307 10.8999 7.40873C10.9842 7.32439 11.0985 7.2769 11.2178 7.27665H11.9615C12.0807 7.2769 12.1951 7.32439 12.2794 7.40873C12.3637 7.49307 12.4112 7.60738 12.4115 7.72665V10.3348H10.7678Z" fill="#A35B1C"/>
</g>
<defs>
<clipPath id="clip0_634_744">
<rect width="13" height="13" fill="white"/>
</clipPath>
</defs>
</svg>
