<svg width="31" height="17" viewBox="0 0 31 17" fill="none" xmlns="http://www.w3.org/2000/svg">
<path d="M6.9797 2.36981C6.96891 2.28591 6.9471 2.20374 6.9148 2.12537C6.91068 2.11055 6.90347 2.09673 6.89363 2.0848C6.88379 2.07287 6.87153 2.06309 6.85763 2.05608C6.83905 2.05133 6.81958 2.05112 6.8009 2.05546L6.50964 2.09931C6.48526 2.1004 6.46192 2.10933 6.44319 2.12471C6.40525 2.16397 6.44261 2.22717 6.44144 2.28133C6.44014 2.34222 6.38515 2.39165 6.32552 2.408C6.26465 2.4201 6.20186 2.41934 6.14131 2.40575L5.73404 2.34348C5.85399 2.30581 5.96075 2.23571 6.04214 2.14119C6.09574 2.07872 6.12425 1.96209 6.0468 1.93251C6.02378 1.9263 5.99978 1.9244 5.97606 1.92692C5.79154 1.92833 5.64634 1.77675 5.47359 1.71291C5.36303 1.67469 5.24302 1.67185 5.13072 1.70479C5.01842 1.73773 4.91958 1.80476 4.84834 1.8963L5.06529 1.90659C5.08571 1.90549 5.10595 1.9108 5.12308 1.92176C5.17063 1.9602 5.11152 2.03402 5.11822 2.09421C5.12692 2.1724 5.23244 2.1891 5.31199 2.19701C5.39154 2.20491 5.49245 2.2685 5.45419 2.33757C5.05438 2.47307 4.64753 2.07271 4.22765 2.12199C4.12138 2.13447 4.02103 2.17554 3.91728 2.20137C3.28348 2.35915 2.62824 1.93818 1.98077 2.02733C1.83683 2.05148 1.69536 2.08819 1.55804 2.13703C1.46992 2.16549 1.37801 2.19626 1.31398 2.26228C1.24995 2.32831 1.22558 2.44122 1.28624 2.51025C1.11905 2.5238 0.950749 2.50806 0.789151 2.46376C0.83285 2.48766 0.869204 2.5227 0.894397 2.56519C0.919589 2.60768 0.932691 2.65606 0.932328 2.70525C0.671287 2.74713 0.417158 2.82337 0.176776 2.93192C0.221641 3.00532 0.274042 3.074 0.333157 3.13688L0.00268555 3.34577C0.114335 3.37345 0.17206 3.52324 0.107132 3.6168C0.222899 3.56612 0.294647 3.43504 0.418441 3.40846C0.499542 3.39105 0.582065 3.42369 0.659002 3.45436C0.735939 3.48502 0.820501 3.51476 0.900147 3.49174C0.979794 3.46873 1.03854 3.36712 0.98793 3.30238C1.32836 3.20465 1.68019 3.15057 2.03469 3.14147C2.06204 3.13809 2.08977 3.14327 2.11396 3.15627C2.16011 3.18777 2.14797 3.25581 2.14548 3.31102C2.143 3.36623 2.18673 3.43879 2.23688 3.4139C2.17788 3.46424 2.22832 3.55901 2.28492 3.61194C2.34153 3.66488 2.40975 3.73792 2.3751 3.80677C2.36605 3.82474 2.35071 3.83912 2.34201 3.85726C2.31632 3.91079 2.35711 3.97319 2.40522 4.00874C2.45332 4.04428 2.51225 4.06912 2.54567 4.11835C2.57908 4.16757 2.56391 4.25373 2.50415 4.2606L2.33431 4.04843C2.27628 4.10763 2.23649 4.18181 2.21957 4.26235C2.39968 4.40722 2.42677 4.70207 2.27599 4.87637C2.19893 4.96544 2.08935 5.01956 1.99371 5.08903C1.89808 5.15851 1.80958 5.25744 1.80982 5.3744C1.81024 5.57648 1.79345 5.76422 1.87042 5.95157C2.01234 6.29703 2.17619 6.63337 2.361 6.9586C2.40953 7.044 2.47225 7.13761 2.57057 7.15231C2.44632 6.8547 2.33446 6.55245 2.23501 6.24557C2.29979 6.24582 2.37464 6.25088 2.41262 6.30251C2.44406 6.34527 2.43731 6.4034 2.44708 6.45529C2.4595 6.50557 2.48023 6.5535 2.50842 6.59718L3.10176 7.63709C3.15095 7.72329 3.20737 7.81583 3.30138 7.85074C3.36148 7.87306 3.43102 7.86885 3.48634 7.90099C3.5297 7.92618 3.5589 7.97089 3.60311 7.99462C3.7281 8.0617 3.90191 7.93304 4.01872 8.01314C4.05212 8.03604 4.07337 8.07242 4.10414 8.09865C4.21202 8.19057 4.38899 8.12907 4.51353 8.19765C4.59379 8.24184 4.63539 8.33022 4.6782 8.41032C4.78544 8.61094 4.95895 8.8075 5.18877 8.82347C5.26096 8.82849 5.33469 8.81502 5.40526 8.83082C5.47582 8.84662 5.54529 8.90721 5.53396 8.97754C5.51454 9.09811 5.57509 9.23013 5.55883 9.35115C5.52921 9.57159 5.21141 9.66846 5.18411 9.88919C5.17814 9.93752 5.18749 9.9874 5.1758 10.0347C5.16146 10.0927 5.11721 10.1399 5.10148 10.1975C5.07168 10.3067 5.1512 10.4154 5.23857 10.4889C5.32593 10.5624 5.43013 10.6257 5.4779 10.7286C5.52838 10.8373 5.50358 10.964 5.52 11.0825C5.55584 11.341 5.7828 11.5327 6.01637 11.6562C6.08753 11.6939 6.16394 11.7303 6.21 11.7957C6.27012 11.8809 6.26413 11.9933 6.2842 12.0952C6.33337 12.3446 6.54682 12.5502 6.55288 12.8043C6.55719 12.9848 6.45517 13.1486 6.39423 13.319C6.3371 13.4823 6.31642 13.6557 6.33361 13.8275C6.35081 13.9993 6.40547 14.1655 6.49386 14.3146C6.53945 14.3904 6.59397 14.4618 6.62622 14.5439C6.68377 14.6904 6.6651 14.857 6.71816 15.0051C6.78831 15.201 6.98108 15.3628 6.96263 15.5697C7.05014 15.7485 7.24339 15.8363 7.43771 15.8895L7.78597 15.9849C7.85266 16.0032 7.92234 16.0216 7.99024 16.0084C8.05814 15.9951 8.12294 15.9397 8.12119 15.8716C7.95041 15.8337 7.77415 15.7934 7.63336 15.691C7.49258 15.5886 7.39614 15.4063 7.44956 15.2422C7.47432 15.1662 7.52702 15.0783 7.47692 15.0155C7.44824 14.9795 7.39578 14.9701 7.36343 14.9372C7.31297 14.886 7.33031 14.8 7.36658 14.7382C7.40286 14.6765 7.4553 14.6213 7.46993 14.5514C7.47732 14.5124 7.47239 14.472 7.45579 14.4357C7.43919 14.3995 7.41173 14.3691 7.37708 14.3487C7.44166 14.3247 7.50039 14.2876 7.54946 14.2398C7.59479 14.1889 7.61573 14.1104 7.58007 14.0525C7.68597 14.0657 7.81099 14.0722 7.8805 13.9924C7.93601 13.9288 7.9322 13.8337 7.91026 13.7526C7.88833 13.6716 7.85126 13.5928 7.8501 13.509C8.09439 13.5204 8.33921 13.5122 8.58214 13.4846C8.54701 13.3682 8.46718 13.2698 8.35958 13.2103C8.46961 13.192 8.56984 13.0624 8.6046 12.9581C8.63936 12.8537 8.6305 12.7401 8.60901 12.6324C8.60076 12.6046 8.59963 12.5753 8.60572 12.547C8.61811 12.5082 8.6569 12.4845 8.69279 12.4642L9.23892 12.1556C9.27151 12.1395 9.30105 12.1181 9.32625 12.0922C9.38347 12.026 9.37499 11.9262 9.3457 11.8443C9.3164 11.7624 9.26947 11.6853 9.25818 11.5992C9.22443 11.3416 9.5047 11.1568 9.59929 10.9143C9.6364 10.8191 9.64397 10.7157 9.65115 10.614C9.65887 10.5048 9.65944 10.3779 9.57421 10.3075C9.49252 10.2401 9.36486 10.2551 9.27937 10.1924C9.201 10.1348 9.17396 10.0231 9.08833 9.97663C9.01057 9.93443 8.91308 9.96127 8.8266 9.94142C8.67433 9.90647 8.5785 9.7338 8.42299 9.71781C8.33525 9.70879 8.23594 9.751 8.16403 9.70072C8.10066 9.65642 8.09812 9.56738 8.08606 9.49182C8.06492 9.37439 8.00772 9.26616 7.92215 9.1817C7.83658 9.09724 7.72676 9.0406 7.60748 9.01943C7.51702 9.00515 7.41854 9.01058 7.34158 8.96166C7.26365 8.91213 7.22792 8.81939 7.1667 8.7508C7.06804 8.64025 6.91266 8.60097 6.7671 8.5673L6.17502 8.43035C6.06992 8.40604 5.93444 8.39315 5.87804 8.48374C5.86134 8.51823 5.84952 8.5548 5.84291 8.59245C5.82177 8.66055 5.77924 8.7203 5.72143 8.76311C5.66361 8.80593 5.59348 8.82961 5.52113 8.83075C5.47151 8.74747 5.39112 8.68627 5.29673 8.65992C5.23669 8.64346 5.17243 8.64163 5.11517 8.61741C5.08399 8.60243 5.05624 8.58135 5.03362 8.55546C5.011 8.52956 4.99399 8.4994 4.98364 8.46682C4.97328 8.43423 4.96978 8.39991 4.97337 8.36595C4.97696 8.33199 4.98756 8.29911 5.00451 8.26932C5.03865 8.20952 5.05183 8.14033 5.04203 8.07243C5.03222 8.00453 4.99997 7.94169 4.95026 7.89361C4.84957 7.80467 4.70393 7.78318 4.56891 7.79208C4.53355 7.71616 4.59268 7.63052 4.65639 7.57535C4.7201 7.52018 4.79747 7.46594 4.81134 7.38356C4.83317 7.25398 4.66512 7.15555 4.53752 7.19419C4.40992 7.23283 4.32848 7.35477 4.27465 7.47497C4.24376 7.54394 4.2175 7.61656 4.16878 7.67472C4.12006 7.73287 4.04159 7.77451 3.96738 7.75584C3.86232 7.72942 3.82174 7.60661 3.79849 7.50239C3.76729 7.36257 3.73591 7.22081 3.74244 7.0778C3.74898 6.93479 3.79798 6.78795 3.90516 6.69114C4.07981 6.53338 4.34774 6.54885 4.58345 6.57401C4.52776 6.51228 4.54152 6.40824 4.6011 6.35014C4.63256 6.32264 4.67035 6.30311 4.71121 6.29323C4.75207 6.28335 4.79476 6.28343 4.83558 6.29346C4.90661 6.308 4.97059 6.34564 5.01724 6.40032C5.08422 6.48067 5.10326 6.58915 5.15389 6.68036C5.20452 6.77156 5.31836 6.84935 5.41154 6.80042C5.49203 6.75816 5.5048 6.64835 5.48477 6.56078C5.46474 6.47321 5.4222 6.38806 5.42945 6.29859C5.4433 6.12786 5.62317 6.02509 5.7819 5.95478C5.94062 5.88447 6.12238 5.78991 6.14752 5.62043C6.14838 5.58725 6.15475 5.55443 6.16636 5.52327C6.18396 5.49574 6.20843 5.4731 6.23743 5.45751C6.70068 5.15629 7.17164 4.8514 7.70111 4.6868C7.72866 4.67824 7.73189 4.68776 7.75996 4.68105C7.79925 4.65871 7.77322 4.5969 7.73555 4.572C7.69788 4.5471 7.64753 4.52801 7.63797 4.48436C7.63095 4.45228 7.65016 4.42077 7.65515 4.38832C7.66742 4.30857 7.57046 4.23495 7.49516 4.26683C7.45263 4.21141 7.53679 4.14701 7.60484 4.12858C7.80918 4.07325 8.01893 4.03954 8.23055 4.02801C8.25497 4.02419 8.27998 4.02838 8.30175 4.03993C8.33729 4.06415 8.33275 4.11971 8.30756 4.15429C8.28237 4.18886 8.24319 4.21057 8.2118 4.23983C8.1775 4.2727 8.15304 4.3142 8.14109 4.35982C8.12913 4.40543 8.13014 4.4534 8.144 4.49849C8.25447 4.55378 8.37457 4.6107 8.49693 4.59122C8.61928 4.57174 8.72788 4.43648 8.67036 4.32846C8.61681 4.22786 8.45594 4.20517 8.42828 4.09492C8.39589 3.96583 8.58161 3.85103 8.53977 3.7246C8.52145 3.66922 8.46535 3.63663 8.42231 3.59664C8.37148 3.54762 8.3369 3.48462 8.32312 3.41591C8.30934 3.3472 8.31699 3.276 8.34509 3.21165C8.27498 3.22379 8.20293 3.21921 8.135 3.19829C8.06706 3.17737 8.00521 3.14073 7.95464 3.09144C7.86125 2.9987 7.78674 2.85242 7.65412 2.85656C7.53242 2.86037 7.4276 3.00007 7.3138 2.95745C7.28581 2.94696 7.25629 2.92562 7.22916 2.93813C7.22027 2.94381 7.21281 2.9514 7.20734 2.96033C7.20187 2.96926 7.19854 2.9793 7.19759 2.98969C7.16867 3.12572 7.21842 3.28072 7.14307 3.39827C7.06107 3.52618 6.8714 3.54392 6.77199 3.65927C6.71803 3.72188 6.69712 3.80626 6.64752 3.87227C6.59792 3.93829 6.49264 3.98026 6.43311 3.92273C6.46237 3.86355 6.47036 3.79637 6.45578 3.73215C6.44119 3.66793 6.4049 3.61047 6.35283 3.56918C6.29757 3.5337 6.238 3.50519 6.17551 3.48431C6.10569 3.45524 6.03928 3.41881 5.97742 3.37569C5.94643 3.35729 5.92125 3.33079 5.90469 3.29913C5.8916 3.25948 5.89336 3.21653 5.90967 3.17805C5.93985 3.09291 5.9931 3.01749 6.06366 2.95995C6.13423 2.9024 6.21943 2.86491 6.31006 2.85153C6.38932 2.84092 6.48156 2.84466 6.53401 2.78524C6.56177 2.75381 6.57633 2.70627 6.61661 2.69351C6.64238 2.68841 6.66913 2.69165 6.69287 2.70275L6.98869 2.80519C7.0217 2.81986 7.05803 2.82577 7.09407 2.82234C7.11195 2.81997 7.12825 2.81104 7.13971 2.79734C7.15117 2.78364 7.15693 2.76618 7.15585 2.74847C7.1464 2.70013 7.07081 2.67694 7.07769 2.62818C7.08154 2.61238 7.09017 2.59811 7.10245 2.58723C7.20921 2.47543 7.33977 2.38824 7.48478 2.3319C7.6298 2.27555 7.78568 2.25145 7.94127 2.26132C7.97861 2.32165 7.91956 2.3931 7.87042 2.44461C7.82129 2.49612 7.78181 2.58814 7.84123 2.62779C7.86558 2.64002 7.89266 2.64602 7.91999 2.64525C7.99282 2.65494 8.0636 2.67607 8.12964 2.70781C8.23186 2.75158 8.33212 2.79947 8.43042 2.85148C8.42174 2.78771 8.41345 2.72053 8.43802 2.6609C8.46259 2.60128 8.53241 2.55451 8.59339 2.57773C8.65217 2.60011 8.68231 2.67668 8.74492 2.68369C8.82845 2.69305 8.8614 2.57164 8.82651 2.49639C8.79162 2.42113 8.72256 2.35812 8.71679 2.2756C8.7129 2.21993 8.73443 2.15089 8.68924 2.11718C8.67315 2.10706 8.6549 2.10076 8.63591 2.09878L7.50741 1.89446C7.44039 1.88233 7.34357 1.89163 7.3406 1.95861C7.33894 1.99599 7.37288 2.03298 7.35785 2.06735C7.34181 2.10404 7.2891 2.10069 7.2507 2.11366C7.19114 2.1338 7.16124 2.20339 7.16697 2.26511C7.17744 2.32643 7.20158 2.38471 7.23765 2.43577C7.16425 2.40557 7.0531 2.40002 6.9797 2.36981Z" fill="#04580C"/>
<path d="M6.07924 1.42726C6.00808 1.40409 5.9314 1.40301 5.85959 1.42417C5.78778 1.44533 5.72433 1.4877 5.67782 1.54555C5.65924 1.56962 5.64364 1.6028 5.65919 1.62887C5.68149 1.66624 5.73832 1.65148 5.78022 1.63811C5.8418 1.61646 5.90883 1.61489 5.97138 1.63362C6.01073 1.64691 6.04592 1.6704 6.08543 1.68319C6.10467 1.6911 6.12573 1.69372 6.14636 1.69075C6.16699 1.68778 6.18641 1.67935 6.20254 1.66635C6.22966 1.63914 6.23136 1.59683 6.23141 1.55872C6.23329 1.54597 6.23225 1.53297 6.22837 1.52066C6.22449 1.50835 6.21787 1.49705 6.20899 1.48758C6.19317 1.47857 6.1754 1.4734 6.15714 1.47249C6.11626 1.46505 6.0793 1.4438 6.05263 1.41241" fill="#04580C"/>
<path d="M6.4862 1.31581C6.47027 1.31496 6.45439 1.31815 6.44009 1.32508C6.42578 1.33201 6.41352 1.34245 6.4045 1.35538C6.39547 1.36832 6.38998 1.38333 6.38856 1.39896C6.38713 1.41459 6.38981 1.43031 6.39635 1.44463C6.44526 1.45775 6.49636 1.46103 6.54658 1.45426C6.57163 1.45044 6.59497 1.4394 6.61366 1.42254C6.63235 1.40569 6.64554 1.38377 6.65159 1.35954C6.59245 1.37013 6.53143 1.35866 6.48042 1.32738" fill="#04580C"/>
<path d="M7.85154 1.12975C7.71843 1.1576 7.58912 1.20082 7.46631 1.25851C7.5242 1.28041 7.57342 1.32002 7.6067 1.37152C7.63999 1.42302 7.65558 1.48367 7.65117 1.54455C7.64598 1.56792 7.64658 1.59218 7.65293 1.61527C7.66707 1.64902 7.70807 1.66168 7.74412 1.67034C7.80887 1.68973 7.8765 1.69822 7.94413 1.69546C7.97796 1.69372 8.01081 1.6837 8.03972 1.66632C8.06863 1.64894 8.09267 1.62474 8.10968 1.59592C8.11948 1.56856 8.13098 1.54182 8.14411 1.51584C8.23051 1.38638 8.48717 1.54292 8.57993 1.4178C8.6126 1.37372 8.60962 1.30737 8.65221 1.27244C8.67425 1.25722 8.69978 1.24764 8.72652 1.24454C8.91306 1.20808 9.10149 1.18167 9.29096 1.16545C9.38073 1.15776 9.49775 1.12604 9.4985 1.03738C9.16035 0.972041 8.80973 1.01845 8.50116 1.16939C8.38998 1.22418 8.24294 1.33943 8.13585 1.26679C8.09575 1.2396 8.09774 1.16636 8.04255 1.13578C7.98613 1.10452 7.91144 1.11723 7.85154 1.12975Z" fill="#04580C"/>
<path d="M8.95743 1.33301L9.11616 1.36302C9.08694 1.36175 9.05778 1.36662 9.03063 1.37731C9.00348 1.38801 8.97895 1.40427 8.9587 1.42503C8.93844 1.44579 8.92291 1.47055 8.91315 1.49768C8.9034 1.52481 8.89963 1.55367 8.90211 1.58234C9.05075 1.6312 9.21281 1.58366 9.36939 1.59015C9.52597 1.59665 9.70816 1.70669 9.68143 1.85863C9.67335 1.90457 9.64637 1.95049 9.6604 1.99502C9.67023 2.02623 9.69821 2.04838 9.714 2.07713C9.74691 2.13704 9.72061 2.21281 9.67906 2.26727C9.6375 2.32172 9.58165 2.36517 9.54517 2.42305C9.45445 2.56698 9.506 2.75306 9.56004 2.91387C9.57566 2.97462 9.60452 3.03132 9.6446 3.08003C9.72466 3.16378 9.85514 3.17107 9.97199 3.17274C10.057 3.17397 10.1545 3.16983 10.2082 3.105C10.2785 3.02036 10.2294 2.8883 10.2756 2.78896C10.3176 2.69874 10.4245 2.66003 10.5215 2.63258C10.699 2.58229 10.8799 2.53953 11.0478 2.46357C11.2562 2.36924 11.451 2.22224 11.6801 2.2101C11.7444 2.2067 11.8102 2.21416 11.8722 2.19683C11.9341 2.17951 11.9929 2.12684 11.9882 2.06368C11.9842 2.00972 11.9378 1.97009 11.9015 1.92941C11.8653 1.88873 11.8368 1.82617 11.8701 1.78313L12.4706 1.67278C12.428 1.55864 12.3949 1.40833 12.4927 1.33404C12.528 1.30724 12.5752 1.29652 12.6053 1.26412C12.6565 1.20889 12.6307 1.11375 12.5716 1.06678C12.5125 1.01981 12.4326 1.0089 12.3568 1.00272C12.0935 0.9812 11.8287 0.995417 11.5649 1.00964C11.0492 1.03746 10.5336 1.06527 10.0179 1.09308C9.91406 1.09868 9.7942 1.09013 9.69899 1.12497C9.61839 1.15447 9.56108 1.20862 9.46889 1.22765C9.29871 1.26277 9.11142 1.23901 8.95743 1.33301Z" fill="#04580C"/>
<path d="M11.8009 2.56753C11.7847 2.56502 11.7681 2.56871 11.7547 2.57784C11.7457 2.58751 11.7404 2.59987 11.7396 2.6129C11.7294 2.67039 11.7416 2.72957 11.7738 2.77859C11.7902 2.80263 11.8129 2.82192 11.8394 2.83444C11.866 2.84696 11.8954 2.85226 11.9247 2.8498C11.9962 2.84083 12.0489 2.78083 12.1146 2.75156C12.2159 2.70648 12.646 2.6362 12.3485 2.47806C12.2459 2.42356 12.1797 2.47167 12.0989 2.50756C12.0069 2.55384 11.9039 2.57457 11.8009 2.56753Z" fill="#04580C"/>
<path d="M14.4069 1.24381C14.3722 1.25777 14.3431 1.28266 14.3243 1.31459C14.3156 1.33081 14.3136 1.34968 14.3187 1.36732C14.3237 1.38495 14.3355 1.4 14.3515 1.40934C14.3645 1.41397 14.3782 1.41611 14.392 1.41566L14.5333 1.41981C14.5933 1.42158 14.6683 1.43415 14.6844 1.49105C14.6964 1.5333 14.6696 1.58759 14.7019 1.61778C14.7158 1.62835 14.7325 1.63476 14.7499 1.63622C14.7965 1.64798 14.8451 1.64952 14.8923 1.64074C14.9951 1.61361 14.941 1.5519 14.9734 1.49694C15.0229 1.41285 15.0144 1.46375 15.1016 1.41556C15.1661 1.37997 15.2494 1.31541 15.1956 1.2247C15.102 1.06696 14.545 1.17604 14.4069 1.24381Z" fill="#04580C"/>
<path d="M17.1949 1.16452L17.1128 1.17529C16.9279 1.19957 16.7419 1.22408 16.5637 1.27873C16.6408 1.30873 16.7217 1.32826 16.8042 1.33679C16.8496 1.33898 16.8947 1.34529 16.9389 1.35563C17.0176 1.37868 17.0969 1.43819 17.1729 1.40771C17.22 1.38881 17.2354 1.34052 17.2745 1.31493C17.3014 1.29726 17.4037 1.26866 17.4151 1.25082C17.5075 1.10664 17.2659 1.15519 17.1949 1.16452Z" fill="#04580C"/>
<path d="M17.555 1.53127C17.4455 1.59155 17.3438 1.66479 17.2524 1.74937C17.2138 1.78502 17.1745 1.82935 17.178 1.88128C17.1826 1.95029 17.2573 1.99033 17.3221 2.01729L17.5843 2.12652C17.6161 2.08241 17.587 2.02152 17.5541 1.97817C17.5212 1.93482 17.4821 1.88466 17.4967 1.8325C17.5132 1.77297 17.587 1.75268 17.6489 1.74243C17.7497 1.72572 18.0216 1.72706 17.9889 1.56724C17.9504 1.37892 17.6562 1.47563 17.555 1.53127Z" fill="#04580C"/>
<path d="M17.5023 12.1883C17.4773 12.2594 17.4749 12.3432 17.5181 12.4053C17.5666 12.4749 17.6635 12.5009 17.7474 12.4832C17.831 12.4614 17.9054 12.4143 17.9603 12.3486C18.0105 12.2935 18.0518 12.2312 18.0828 12.1638C18.126 12.0588 18.1564 11.9491 18.1736 11.837L18.255 11.4165C18.2732 11.3225 18.2725 11.0343 18.0969 11.1282C18.0489 11.1538 17.9378 11.3563 17.8876 11.4138C17.797 11.5173 17.785 11.6177 17.7373 11.7431C17.6775 11.9001 17.5575 12.031 17.5023 12.1883Z" fill="#04580C"/>
<path d="M26.7761 14.3405C26.7186 14.3184 26.6629 14.2923 26.6092 14.2623C26.5555 14.4078 26.5269 14.5611 26.5247 14.7159L26.9178 14.497C26.9769 14.4641 27.044 14.4183 27.0427 14.3515C27.0432 14.3432 27.0415 14.335 27.0377 14.3276C27.0338 14.3202 27.0281 14.314 27.021 14.3096C27.0122 14.3062 27.0027 14.3051 26.9934 14.3064C26.9351 14.3112 26.882 14.3394 26.827 14.3591C26.772 14.3787 26.7077 14.3891 26.6572 14.3599" fill="#04580C"/>
<path d="M28.85 14.4704C28.8068 14.482 28.7647 14.4969 28.7239 14.515C28.6337 14.5601 28.5723 14.6459 28.4911 14.7054C28.4134 14.7623 28.3199 14.7936 28.2281 14.824C28.2011 14.8474 28.2135 14.8948 28.2428 14.9154C28.2743 14.933 28.3105 14.941 28.3466 14.9384C28.442 14.9404 28.5425 14.9413 28.6261 14.896C28.6731 14.866 28.7172 14.8316 28.7576 14.7933C28.8553 14.7131 28.9726 14.6602 29.0887 14.609C29.131 14.5933 29.1701 14.5703 29.2041 14.5411C29.2771 14.4704 29.2822 14.3613 29.177 14.3372C29.092 14.3178 28.9309 14.4447 28.85 14.4704Z" fill="#04580C"/>
<path d="M29.7663 13.8816C29.771 13.8329 29.7645 13.7838 29.7471 13.738C29.7297 13.6922 29.702 13.6509 29.666 13.6172C29.6649 13.7146 29.6619 13.8183 29.6062 13.8988C29.5666 13.9562 29.5044 13.995 29.4609 14.0496C29.4175 14.1043 29.3982 14.1909 29.4492 14.2388C29.4817 14.2632 29.5214 14.2767 29.5624 14.2772C29.6638 14.2889 29.7812 14.2955 29.8524 14.2234C29.8912 14.184 29.9101 14.1257 29.9575 14.0968C29.9751 14.0895 29.9909 14.0784 30.0036 14.0643C30.0232 14.0337 29.9921 13.9934 29.9571 13.9824C29.9221 13.9714 29.8836 13.9765 29.8484 13.9661C29.8133 13.9556 29.781 13.9167 29.799 13.8852" fill="#04580C"/>
<path d="M28.1378 10.3114C28.0846 10.3241 28.0294 10.3273 27.9751 10.3208C27.8847 10.3045 27.8144 10.2375 27.7415 10.1826C27.5682 10.0527 27.3575 9.98026 27.1396 9.97565C26.9415 9.97197 26.7415 10.0248 26.5469 9.98794C26.5596 10.0575 26.6201 10.1097 26.6847 10.1407C26.7492 10.1717 26.8205 10.1874 26.8854 10.2177C26.9893 10.2669 27.0717 10.3512 27.1175 10.4553C27.1384 10.5033 27.1515 10.5556 27.1832 10.5975C27.2479 10.6831 27.3705 10.7019 27.4787 10.6949C27.6198 10.6858 27.7672 10.6459 27.8985 10.6976C27.9989 10.7371 28.0708 10.8236 28.1546 10.8909C28.2385 10.9581 28.3566 11.008 28.4528 10.9595C28.3528 10.9276 28.2658 10.8652 28.2044 10.7812C28.1431 10.6972 28.1106 10.5962 28.1117 10.4927C28.2062 10.5013 28.4781 10.498 28.4635 10.3401C28.4511 10.2063 28.2189 10.2969 28.1378 10.3114Z" fill="#04580C"/>
<path d="M26.9025 11.3999C26.9192 11.3094 27.0109 11.2295 26.9824 11.1419C26.9626 11.0813 26.8912 11.0514 26.8266 11.05C26.762 11.0485 26.6985 11.0674 26.6339 11.0692C26.5918 11.067 26.5497 11.0676 26.5077 11.0709C26.3794 11.0917 26.3004 11.224 26.1795 11.271C26.106 11.2996 26.0234 11.2941 25.9469 11.3139C25.7734 11.3588 25.6636 11.5201 25.5423 11.6502C25.3463 11.8594 25.091 12.006 24.8094 12.0708C24.7107 12.0932 24.6046 12.1076 24.5262 12.1707C24.4224 12.2542 24.3968 12.3973 24.3737 12.5273C24.3099 12.8863 24.2123 13.2386 24.0823 13.5799L24.4943 13.6316C24.5727 13.6415 24.6538 13.6511 24.7293 13.6283C24.7842 13.6079 24.8361 13.5807 24.8839 13.5473C25.0674 13.4352 25.2728 13.3622 25.4868 13.3331C25.5947 13.3186 25.7078 13.3159 25.809 13.3554C25.9103 13.3948 25.9972 13.4843 26.0057 13.5911C26.0495 13.5777 26.0961 13.5763 26.1407 13.587C26.1852 13.5976 26.226 13.62 26.2587 13.6517C26.3232 13.7164 26.3654 13.7994 26.3794 13.8889C26.3903 13.9444 26.4012 14.0109 26.4535 14.0341C26.4961 14.0531 26.5451 14.0327 26.5918 14.029C26.7502 14.0165 26.8817 14.1983 27.0374 14.167C27.2044 14.1334 27.2454 13.8873 27.4083 13.838C27.5018 13.8097 27.6331 13.8441 27.6779 13.7585C27.7174 13.683 27.6386 13.5959 27.6467 13.5114C27.6567 13.4073 27.7815 13.3632 27.8777 13.3188C28.2093 13.1657 28.3666 12.7266 28.2059 12.4027C28.1107 12.2109 27.9234 12.0598 27.8888 11.849C27.8622 11.6868 27.9272 11.4977 27.8221 11.3701C27.7686 11.3051 27.6781 11.2693 27.6463 11.1918C27.6263 11.143 27.6343 11.0877 27.6235 11.0361C27.6127 10.9846 27.5671 10.9307 27.5153 10.9441C27.3652 10.9828 27.3173 11.4391 27.237 11.55C27.1148 11.7185 26.864 11.6075 26.9025 11.3999Z" fill="#04580C"/>
<path d="M24.1277 10.4837C24.0764 10.4696 24.0204 10.4556 23.9712 10.4758C23.9221 10.4961 23.8934 10.5671 23.9328 10.6023C24.2414 10.5905 24.5519 10.5787 24.8579 10.62C25.2105 10.6675 25.5594 10.7852 25.9135 10.7505C25.7112 10.6918 25.5056 10.6449 25.2977 10.61L24.9511 10.5448C24.8581 10.5256 24.7641 10.5113 24.6696 10.502C24.4718 10.4859 24.3221 10.5374 24.1277 10.4837Z" fill="#04580C"/>
<path d="M24.4367 9.42618C24.4111 9.42407 24.3794 9.42226 24.3661 9.44393C24.3534 9.46464 24.3679 9.492 24.3611 9.51522C24.3518 9.54695 24.3096 9.55505 24.2763 9.55073C24.2431 9.54641 24.2071 9.53607 24.1776 9.55185C24.1626 9.5619 24.1514 9.57644 24.1456 9.59331C24.1397 9.61017 24.1396 9.62844 24.1452 9.64537C24.1573 9.67899 24.1768 9.70956 24.2023 9.73487C24.2459 9.78892 24.2956 9.83793 24.3504 9.88099C24.4564 9.95802 24.6001 9.99515 24.6669 10.107C24.6764 10.1286 24.6908 10.1478 24.7092 10.163C24.7413 10.183 24.7831 10.1677 24.8176 10.1522L24.9387 10.0978C24.9605 10.0901 24.98 10.0771 24.9953 10.0599C25.0229 10.023 25.0059 9.97054 24.9827 9.93077C24.9595 9.891 24.9298 9.84984 24.9348 9.80424C24.9437 9.72294 25.0499 9.69185 25.0936 9.62229C25.1376 9.55217 25.109 9.46183 25.114 9.37956C25.12 9.28334 25.1814 9.15819 25.0826 9.08631C24.9985 9.02521 24.9182 9.08166 24.8579 9.14911C24.7307 9.29135 24.6706 9.44539 24.4367 9.42618Z" fill="#04580C"/>
<path d="M25.1715 7.98863C25.2128 8.06647 25.299 8.11293 25.344 8.18875C25.3929 8.27092 25.3873 8.37709 25.4403 8.45674C25.4947 8.53846 25.6041 8.58185 25.6346 8.6748C25.6679 8.77627 25.5923 8.89961 25.6525 8.98827C25.6638 9.00277 25.6779 9.01481 25.6941 9.02363C25.7103 9.03246 25.7282 9.03788 25.7467 9.03954C25.7651 9.04121 25.7837 9.03909 25.8013 9.03332C25.8188 9.02755 25.835 9.01825 25.8487 9.00601C25.8741 8.97882 25.8877 8.94295 25.8866 8.90605C25.8855 8.86914 25.8697 8.83413 25.8428 8.80846C25.8071 8.77649 25.7559 8.76267 25.7262 8.72532C25.7107 8.70377 25.7004 8.67904 25.696 8.65299C25.6798 8.57785 25.6824 8.49995 25.7036 8.42602C25.7115 8.40726 25.7136 8.38657 25.7094 8.36665C25.696 8.32834 25.6432 8.32562 25.6062 8.30784C25.5222 8.26747 25.5242 8.15075 25.5389 8.05986C25.5291 8.12037 25.31 8.01746 25.2871 7.98318C25.2415 7.91509 25.2663 7.78374 25.2573 7.7085C25.1589 7.75514 25.121 7.89344 25.1715 7.98863Z" fill="#04580C"/>
<path d="M22.9645 9.18631C22.9241 9.14178 22.8632 9.09519 22.809 9.12204C22.7676 9.14254 22.7563 9.19884 22.7725 9.24152C22.7922 9.28297 22.8226 9.31864 22.8607 9.34498C22.9736 9.43665 23.0953 9.51939 23.1938 9.62595C23.3702 9.81665 23.4637 10.074 23.6555 10.2497C23.694 10.2904 23.7451 10.3176 23.8008 10.3271C23.8567 10.3322 23.9195 10.297 23.9259 10.2421C23.9312 10.1969 23.8991 10.1565 23.8679 10.123C23.7933 10.0433 23.7118 9.96985 23.6414 9.88653C23.6089 9.85453 23.5885 9.81257 23.5836 9.7676C23.5832 9.72274 23.6248 9.67578 23.669 9.68689C23.6152 9.67338 23.5754 9.58531 23.4965 9.56875C23.4306 9.55492 23.4147 9.59506 23.3362 9.56196C23.1867 9.49884 23.0693 9.3017 22.9645 9.18631Z" fill="#04580C"/>
<path d="M26.4793 4.84979C26.4364 4.83724 26.3942 4.82241 26.353 4.80537C26.2419 4.77257 26.0949 4.85289 26.1097 4.96605C26.1196 5.04124 26.1907 5.09193 26.23 5.15715C26.2882 5.25387 26.2727 5.37654 26.2421 5.48485C26.2346 5.51838 26.2203 5.55009 26.2001 5.57808C26.1718 5.60764 26.138 5.63155 26.1005 5.64853C25.9505 5.73128 25.8183 5.84184 25.711 5.9741C25.6994 5.98632 25.6912 6.00138 25.6875 6.01773C25.6822 6.05594 25.7212 6.08377 25.7433 6.11564C25.7923 6.18642 25.7569 6.28168 25.7617 6.3672C25.761 6.37929 25.7634 6.39137 25.7687 6.40229C25.7741 6.41322 25.7821 6.42262 25.7922 6.4296C25.8217 6.44437 25.8568 6.41929 25.8728 6.39074C25.9259 6.29601 25.8859 6.14394 25.9856 6.09826C26.0044 6.08962 26.0273 6.08598 26.0399 6.06968C26.0598 6.04382 26.0406 6.00553 26.0507 5.97463C26.0659 5.92822 26.1304 5.92614 26.1799 5.9282C26.2652 5.9317 26.3504 5.92054 26.4318 5.8952C26.4637 5.88773 26.4927 5.87121 26.5152 5.84769C26.545 5.81109 26.5424 5.75906 26.5364 5.71253C26.5066 5.48057 26.4319 5.25637 26.3164 5.05203C26.404 5.06303 26.4993 5.07257 26.5748 5.02766C26.6172 5.00251 26.6679 4.92731 26.6469 4.87613C26.6137 4.79519 26.5538 4.86332 26.4793 4.84979Z" fill="#04580C"/>
<path d="M15.2517 6.1256C15.2622 6.18091 15.2725 6.23914 15.2541 6.2924C15.2357 6.34566 15.1777 6.39017 15.123 6.37385C15.0805 6.36118 15.056 6.31917 15.0258 6.28714C14.8581 6.109 14.4798 6.21214 14.3762 5.99176C14.3339 5.90181 14.3626 5.79406 14.3338 5.69911C14.3156 5.64424 14.2794 5.59686 14.2308 5.56443C14.1823 5.53199 14.1242 5.51633 14.0657 5.51991C14.0123 5.5275 13.9603 5.54277 13.9114 5.56522C13.5838 5.69429 13.24 5.77892 12.8892 5.81677C12.8226 5.82076 12.7566 5.83257 12.6928 5.85193C12.5488 5.9033 12.4504 6.03467 12.3804 6.16872C12.3103 6.30277 12.2586 6.4479 12.1647 6.567C12.0661 6.69216 11.9278 6.77981 11.7988 6.87462C11.7491 6.90612 11.7078 6.94879 11.6781 6.9991C11.6501 7.05558 11.6517 7.12128 11.6539 7.18406L11.6803 7.94667C11.6836 8.04476 11.6879 8.14635 11.7325 8.23414C11.7882 8.34375 11.8983 8.41554 11.9747 8.51237C12.0526 8.61189 12.0932 8.73483 12.0896 8.8604C12.088 8.91089 12.0829 8.9706 12.1228 9.00231C12.1471 9.01781 12.1756 9.02586 12.2045 9.02543L13.253 9.10986C13.4374 9.12471 13.6418 9.14913 13.7622 9.28738C13.8191 9.35263 13.8647 9.44646 13.9518 9.45346C13.9891 9.45646 14.0254 9.44138 14.0628 9.43847C14.157 9.43113 14.2398 9.50149 14.292 9.57899C14.3711 9.69711 14.4069 9.83816 14.3938 9.979C14.3852 10.0674 14.3573 10.1533 14.3513 10.242C14.3285 10.5791 14.619 10.872 14.6246 11.2099C14.6279 11.4086 14.532 11.5943 14.4385 11.7705C14.5894 11.9954 14.4659 12.2948 14.5259 12.5577C14.5829 12.8072 14.7943 13.0024 14.847 13.2528C14.8711 13.3674 14.8725 13.5084 14.9752 13.5674C15.0203 13.589 15.0702 13.5989 15.1203 13.596C15.4222 13.5995 15.7206 13.5327 15.9913 13.4009C16.1183 13.3389 16.2499 13.2463 16.2721 13.1085C16.29 12.9974 16.2327 12.8731 16.291 12.7764C16.3597 12.6623 16.5356 12.6713 16.6367 12.5836C16.8007 12.4413 16.6728 12.17 16.7392 11.9651C16.799 11.7809 17.0045 11.683 17.1064 11.5177C17.1465 11.4466 17.1753 11.3698 17.1917 11.2901C17.2384 11.0997 17.2675 10.9055 17.2785 10.7098C17.2813 10.591 17.2902 10.4724 17.3052 10.3544C17.4151 9.68288 18.0898 9.23322 18.3089 8.5881C18.3298 8.5265 18.3396 8.44443 18.2839 8.40957C18.2509 8.39406 18.2134 8.3902 18.1778 8.39865L17.6945 8.4586C17.6345 8.46605 17.5709 8.47301 17.5157 8.44847C17.4606 8.42394 17.4211 8.35532 17.4503 8.3032C17.5324 8.1569 17.3636 7.97203 17.2885 7.8221C17.0865 7.41839 16.8459 7.0345 16.57 6.67561C16.5524 6.65714 16.5413 6.63352 16.5385 6.60831L16.6757 6.6128C16.6294 6.44933 16.553 6.27044 16.3916 6.21064C16.3006 6.17694 16.1999 6.18859 16.1028 6.19381C15.8248 6.20875 15.5268 6.16746 15.2517 6.1256Z" fill="#04580C"/>
<path d="M16.103 2.44163C16.1757 2.51763 16.2572 2.59821 16.3625 2.61146C16.5483 2.63486 16.682 2.44572 16.7671 2.28144C16.7702 2.32332 16.7899 2.36234 16.8218 2.3902C16.8538 2.41806 16.8955 2.43256 16.9381 2.43062C16.984 2.42303 17.0278 2.40618 17.0667 2.38114C17.4351 2.18311 17.8476 2.07818 18.2673 2.07579C18.2633 2.04451 18.2712 2.01286 18.2894 1.98697C18.3077 1.96107 18.3351 1.94275 18.3663 1.93555C18.4516 1.9189 18.5285 1.99149 18.5697 2.0669C18.6108 2.14231 18.6365 2.22971 18.7019 2.28615C18.7673 2.34259 18.8939 2.34013 18.9198 2.2584C18.9446 2.17993 18.8615 2.11301 18.7925 2.06675C18.7234 2.02049 18.6507 1.93486 18.6972 1.86659C19.0498 1.78979 19.4046 1.71269 19.7655 1.69743C19.8269 1.69953 19.8881 1.68916 19.9453 1.66695C20.0003 1.64038 20.0441 1.58006 20.0293 1.52153C19.9505 1.53975 19.8681 1.53447 19.7924 1.50638C19.7167 1.4783 19.6512 1.42866 19.6043 1.36382C20.105 1.32317 20.6376 1.28852 21.0813 1.52032C21.1346 1.6328 20.8632 1.72637 20.9358 1.82781C20.9589 1.86017 21.0053 1.86396 21.0456 1.8647C21.3539 1.87033 21.664 1.87585 21.9689 1.83005C22.0803 1.81331 22.1929 1.78968 22.3047 1.80325C22.4911 1.82586 22.6504 1.94818 22.8337 1.98805C22.9083 2.00429 22.992 2.00484 23.0549 1.96214C23.1177 1.91945 23.1448 1.82223 23.0932 1.76673C23.2658 1.60031 23.5523 1.64155 23.7799 1.72123C24.0076 1.80091 24.2233 1.9294 24.4643 1.94716C24.6371 1.95989 24.8123 1.91416 24.983 1.94323C25.0903 1.96149 25.1902 2.00846 25.2951 2.03731C25.4934 2.09189 25.7032 2.08037 25.9092 2.083C26.4346 2.08996 26.9543 2.19157 27.4426 2.38278C27.5061 2.40313 27.5643 2.43696 27.613 2.48187C27.6584 2.52974 27.6816 2.60412 27.6511 2.66231L27.1466 2.58978C27.1941 2.68185 27.3171 2.69754 27.4169 2.7293C27.5168 2.76106 27.6204 2.86958 27.5603 2.95429C27.4521 2.92039 27.3541 3.02684 27.2994 3.12477C27.2448 3.22271 27.1781 3.34 27.0648 3.34597C26.9632 3.35131 26.8404 3.26624 26.7742 3.34219C26.8657 3.45569 26.944 3.57886 27.0077 3.70943C27.0731 3.84346 27.1196 4.01236 27.0313 4.13295C27.0173 4.15448 26.9963 4.17057 26.9716 4.17846C26.8994 4.19644 26.8525 4.10956 26.8008 4.0569C26.7355 3.99054 26.6369 3.97175 26.5485 3.94063C26.4602 3.90951 26.3672 3.84828 26.3602 3.75622C26.3559 3.69894 26.3867 3.64569 26.4093 3.59275C26.4474 3.50351 26.464 3.40685 26.458 3.31026C26.453 3.23255 26.4309 3.15172 26.3741 3.09743C26.3174 3.04313 26.2195 3.02591 26.1586 3.07564C26.1302 3.09884 26.1074 3.13595 26.0705 3.13734C26.0053 3.1398 25.9553 3.02797 25.9028 3.06614C25.909 3.10682 25.9004 3.14832 25.8786 3.18341C25.7221 3.31734 25.4817 3.26068 25.2799 3.30799C25.1839 3.33501 25.0921 3.37448 25.0067 3.42537C24.9748 3.4388 24.9476 3.46124 24.9286 3.48985C24.9034 3.53801 24.9312 3.59969 24.9756 3.63171C25.0227 3.66012 25.0756 3.67789 25.1305 3.68373C25.3765 3.72957 25.6261 3.80052 25.8203 3.95598C26.0145 4.11144 26.1419 4.36842 26.0804 4.60722L25.5953 4.15115C25.6137 4.34265 25.6242 4.53467 25.6267 4.72721C25.6298 4.76481 25.6245 4.80263 25.6113 4.83802C25.5767 4.91317 25.483 4.93846 25.4008 4.95505C25.378 4.95932 25.3563 4.9683 25.3372 4.9814C25.3182 4.99449 25.3021 5.01141 25.2902 5.03103C25.2782 5.05066 25.2706 5.07255 25.2679 5.09527C25.2652 5.11799 25.2673 5.14103 25.2743 5.16286C25.3035 5.25645 25.3762 5.32941 25.4429 5.40212C25.5095 5.47482 25.575 5.55746 25.5838 5.65497C25.5925 5.75249 25.5177 5.86241 25.4185 5.85563C25.3432 5.85049 25.2874 5.78421 25.2553 5.71706C25.2232 5.6499 25.2041 5.57509 25.1559 5.51802C25.0099 5.34531 24.6821 5.41931 24.5513 5.23518C24.518 5.27238 24.4949 5.31734 24.4842 5.3658C24.4735 5.41426 24.4756 5.4646 24.4902 5.51206C24.551 5.47459 24.6343 5.5094 24.68 5.56384C24.7257 5.61828 24.7473 5.68808 24.7831 5.74922C24.8316 5.83173 24.9087 5.90488 24.9154 5.99992C24.9136 6.03587 24.9142 6.07188 24.9173 6.10775C24.9293 6.16534 24.9787 6.20669 25.013 6.25483C25.0929 6.36684 25.0889 6.52071 25.0375 6.6478C24.986 6.77488 24.8936 6.88108 24.8021 6.98404C24.6422 7.16387 24.479 7.34264 24.2894 7.49198C24.2353 7.53459 24.1776 7.57649 24.1439 7.63607C24.1102 7.69565 24.1085 7.77927 24.1603 7.82459C24.1232 7.82641 24.0568 7.84434 24.0198 7.84617C24.0067 7.69996 24.0039 7.55306 24.0113 7.40647C23.8651 7.33741 23.7077 7.52236 23.7266 7.68082C23.7455 7.83928 23.8619 7.96644 23.9449 8.10354C24.0055 8.2038 24.0506 8.3207 24.0304 8.43566C24.0101 8.55061 23.9058 8.65666 23.7877 8.64652C23.5998 8.6304 23.5212 8.36499 23.3351 8.33461C23.3187 8.33082 23.3015 8.33251 23.2861 8.3394C23.2585 8.35431 23.2537 8.39068 23.2522 8.42164C23.2446 8.5736 23.238 8.73161 23.2983 8.87172C23.3865 9.07668 23.6143 9.24883 23.5665 9.46639C23.309 9.34863 23.1752 9.06452 23.1144 8.79161C23.0536 8.51871 23.0434 8.23221 22.9345 7.97422C22.8517 8.07856 22.6778 7.9923 22.6022 7.88284C22.5306 7.77906 22.4865 7.65902 22.4169 7.55385C22.3474 7.44868 22.2409 7.3545 22.1135 7.34872C21.9799 7.34265 21.8641 7.43283 21.7622 7.51803C21.6785 7.5881 21.5925 7.66091 21.5435 7.75776C21.4723 7.8987 21.4909 8.06484 21.4875 8.22221C21.4838 8.39235 21.4471 8.57185 21.3293 8.6964C21.2114 8.82094 20.9939 8.86433 20.8639 8.75208C20.796 8.69347 20.7632 8.60592 20.7339 8.52187C20.5928 8.11675 20.4753 7.70405 20.382 7.28577C20.3601 7.38124 20.2749 7.50428 20.1935 7.44805C20.1753 7.43293 20.1605 7.41417 20.1501 7.39301C19.9983 7.13983 19.7171 6.98796 19.433 6.89691C19.149 6.80585 18.8501 6.76337 18.5691 6.6633C18.4117 6.6072 18.2613 6.5335 18.121 6.44366C18.0852 6.49538 18.0643 6.55566 18.0605 6.61811C18.0567 6.68056 18.0702 6.74285 18.0994 6.7984C18.1618 6.90696 18.3028 6.96978 18.4235 6.93183C18.4859 6.91222 18.5385 6.86961 18.6004 6.84857C18.6623 6.82752 18.7454 6.83786 18.7725 6.89653C18.7984 6.95269 18.7592 7.02063 18.7787 7.07927C18.8082 7.16858 18.9451 7.17546 18.993 7.25673C19.0286 7.3172 18.9993 7.3975 18.9485 7.44629C18.8976 7.49508 18.8298 7.52184 18.7677 7.55581C18.5663 7.66602 18.423 7.85415 18.247 8.00052C18.0709 8.14689 17.8226 8.25375 17.6128 8.15986C17.6628 7.91071 17.3611 7.72779 17.3056 7.47977C17.2874 7.39813 17.2968 7.31141 17.2708 7.23186C17.233 7.11667 17.1291 7.03748 17.0439 6.95019C16.9406 6.84317 16.8601 6.71686 16.8072 6.57873C16.7542 6.4406 16.73 6.29343 16.7358 6.14592C16.7404 6.04342 16.7595 5.93924 16.7358 5.83933C16.7121 5.73942 16.628 5.64271 16.5238 5.64724C16.2858 5.65758 15.9861 5.675 15.8612 5.47542C15.8167 5.40419 15.7973 5.29986 15.8617 5.24529C15.9071 5.20679 15.9742 5.21042 16.0339 5.21619L16.5701 5.26809C16.6954 5.28022 16.831 5.29024 16.9386 5.22574C17.0462 5.16124 17.0928 4.99003 16.9932 4.91415C16.9204 4.8587 16.79 4.86171 16.7688 4.77355C16.7512 4.70013 16.8338 4.61682 16.7892 4.55547C16.7572 4.51147 16.6853 4.52368 16.6417 4.55666C16.5981 4.58964 16.5665 4.63787 16.5177 4.66284C16.4322 4.70665 16.3299 4.66496 16.2379 4.63662C16.1459 4.60829 16.0225 4.60588 15.9778 4.68999C15.9279 4.78406 16.0221 4.90732 15.9726 5.00158C15.907 5.12621 15.6852 5.05526 15.5932 5.16246C15.4876 5.28546 15.665 5.46888 15.6294 5.62603C15.584 5.64818 15.5334 5.65835 15.4828 5.65555C15.4322 5.65275 15.3831 5.63707 15.3405 5.61005C15.2985 5.58198 15.2651 5.54325 15.2437 5.49797C15.2224 5.4527 15.2139 5.40258 15.2192 5.35294C15.228 5.28225 15.2655 5.21009 15.2404 5.14328C15.2201 5.08927 15.1649 5.05712 15.1137 5.02927L14.5927 4.746C14.5443 4.83429 14.6055 4.94374 14.682 5.01005C14.7585 5.07636 14.8543 5.12631 14.9045 5.21358C14.9363 5.27404 14.9434 5.34417 14.9244 5.40962C14.9054 5.47508 14.8618 5.53094 14.8023 5.56579C14.7949 5.57085 14.7864 5.57426 14.7775 5.57579C14.7686 5.57732 14.7594 5.57693 14.7507 5.57465C14.7424 5.56985 14.7351 5.56345 14.7294 5.55584C14.7236 5.54822 14.7195 5.53955 14.7172 5.53034C14.6253 5.29888 14.4872 5.07067 14.2666 4.94976C14.0459 4.82885 13.7289 4.85371 13.5842 5.05739C13.5498 5.10577 13.5267 5.16091 13.4968 5.21206C13.3377 5.4838 12.9967 5.61248 12.6781 5.60408C12.6469 5.60577 12.6159 5.5986 12.5888 5.58343C12.5373 5.54844 12.5396 5.47419 12.5475 5.41311L12.5809 5.15389C12.5877 5.10184 12.5974 5.04431 12.6393 5.01182C12.6983 4.96601 12.7834 4.99492 12.8586 4.99385C12.9155 4.99123 12.9703 4.97144 13.0154 4.93717C13.0606 4.9029 13.0939 4.85581 13.1109 4.80227C13.1261 4.74821 13.126 4.6911 13.1106 4.63708C13.0953 4.58307 13.0652 4.53421 13.0237 4.49576C12.9892 4.46392 12.943 4.42393 12.9612 4.38101C12.9685 4.36914 12.9783 4.35898 12.9899 4.35124C13.0016 4.3435 13.0149 4.33837 13.0288 4.33622C13.1638 4.29764 13.3065 4.28753 13.4392 4.24201C13.572 4.19649 13.7008 4.10336 13.7322 3.96854C13.7418 3.92722 13.7462 3.87717 13.784 3.85668C13.8029 3.84882 13.8232 3.84473 13.8438 3.84466C13.9157 3.83458 13.9813 3.79836 14.0275 3.74312C14.0737 3.68789 14.0972 3.61764 14.0933 3.5462C14.157 3.50246 14.2461 3.53463 14.3077 3.58116C14.3692 3.62769 14.4236 3.68916 14.4985 3.70921C14.6381 3.74659 14.7729 3.625 14.9176 3.62443C14.9784 3.6242 15.0414 3.64536 15.0986 3.62507C15.1567 3.6045 15.1913 3.54767 15.2358 3.50569C15.2804 3.46371 15.3585 3.43811 15.3996 3.48333L15.3646 3.22816C15.4351 3.24569 15.5086 3.24817 15.5802 3.23544C15.6517 3.22271 15.7197 3.19506 15.7795 3.15435L15.327 3.00392C15.3113 3.00005 15.2967 2.9924 15.2847 2.98165C15.2518 2.9468 15.2845 2.89248 15.3112 2.85286C15.3752 2.75808 15.386 2.60195 15.2807 2.55476C15.2089 2.52255 15.1264 2.56121 15.0575 2.59904L14.7272 2.78023C14.7167 2.842 14.7935 2.877 14.8411 2.91861C14.8698 2.94378 14.8902 2.97693 14.8995 3.01371C14.9088 3.05048 14.9065 3.08916 14.8931 3.12465C14.8796 3.16015 14.8555 3.19081 14.824 3.21261C14.7925 3.23441 14.7551 3.24632 14.7166 3.24679C14.7383 3.27461 14.7534 3.30688 14.7608 3.34123C14.7681 3.37557 14.7675 3.4111 14.7591 3.44519L14.5368 3.46092C14.5119 3.46586 14.486 3.46088 14.4648 3.44708C14.441 3.42631 14.4442 3.38992 14.4387 3.35911C14.4254 3.28477 14.3514 3.23266 14.2759 3.2193C14.2004 3.20594 14.1232 3.22307 14.0484 3.23998C14.0166 3.25122 13.9818 3.25043 13.9506 3.23776C13.9327 3.22632 13.9191 3.20945 13.9119 3.1897C13.8791 3.1115 13.9097 3.01958 13.9624 2.9527C14.015 2.88582 14.0871 2.83694 14.1518 2.78126C14.3066 2.64763 14.4204 2.47407 14.4802 2.28019C14.6025 2.22976 14.7292 2.16124 14.8515 2.11081C15.0401 2.01686 15.2516 1.97654 15.4622 1.99439L15.8765 2.00217C15.9992 2.00448 16.1251 2.00743 16.2385 2.05344C16.352 2.09945 16.4516 2.19896 16.4595 2.31942C16.4618 2.33305 16.4606 2.34706 16.456 2.36011C16.4513 2.37317 16.4434 2.38485 16.4329 2.39406C16.4169 2.40266 16.3987 2.40668 16.3805 2.40568C16.2661 2.40963 16.2173 2.43767 16.103 2.44163Z" fill="#04580C"/>
<path d="M12.801 3.71915C12.8172 3.70408 12.8289 3.6849 12.8347 3.66374C12.8405 3.64258 12.8403 3.62024 12.8341 3.59919C12.7947 3.58424 12.7519 3.5804 12.7104 3.5881C12.6689 3.59581 12.6304 3.61476 12.5993 3.64281C12.5748 3.66724 12.5536 3.69475 12.5364 3.72463C12.482 3.81202 12.4338 3.9164 12.4654 4.01408C12.4679 4.02474 12.4726 4.03478 12.4792 4.04361C12.4858 4.05245 12.4941 4.05991 12.5036 4.06555C12.5177 4.07114 12.533 4.07349 12.5482 4.07242C12.6082 4.07235 12.6681 4.06872 12.7276 4.06156C12.7642 4.05716 12.8066 4.047 12.8207 4.01354C12.8393 3.96955 12.7944 3.91977 12.8075 3.87391C12.8161 3.85341 12.8291 3.835 12.8457 3.81998C12.854 3.81241 12.8603 3.80306 12.8642 3.79267C12.8681 3.78227 12.8695 3.77113 12.8683 3.76011C12.863 3.73859 12.8296 3.72639 12.8175 3.74508" fill="#04580C"/>
<path d="M13.112 3.32246C13.0587 3.31043 13.0038 3.30703 12.9494 3.31242C12.9374 3.31206 12.9255 3.31473 12.9148 3.32016C12.9044 3.32768 12.8969 3.33838 12.8934 3.35058C12.8819 3.38686 12.8848 3.42606 12.9013 3.46038C12.9179 3.4947 12.947 3.52161 12.9828 3.53577C13.0024 3.54019 13.0211 3.54758 13.0383 3.55769C13.0843 3.59279 13.055 3.66454 13.0637 3.72116C13.0734 3.78474 13.136 3.83811 13.1245 3.90141C13.1155 3.95128 13.0614 3.99077 13.0701 4.0407C13.0792 4.09299 13.1466 4.1087 13.2004 4.11289C13.2316 4.11826 13.2636 4.11464 13.2927 4.10248C13.3219 4.08285 13.3427 4.05327 13.351 4.01947C13.373 3.95502 13.3822 3.88701 13.3782 3.81913C13.378 3.78826 13.3701 3.7579 13.3553 3.7307C13.3391 3.70915 13.3211 3.68894 13.3016 3.67025C13.1986 3.55238 13.3071 3.37655 13.112 3.32246Z" fill="#04580C"/>
</svg>
