<svg width="18" height="18" viewBox="0 0 18 18" fill="none" xmlns="http://www.w3.org/2000/svg">
<g clip-path="url(#clip0_634_750)">
<path d="M13.2366 9.50221C13.195 9.3813 13.0813 9.30002 12.9531 9.30002C11.2206 9.30002 9.92975 11.6448 9.24726 14.0934C9.32527 12.7047 9.51455 11.7099 9.67086 10.8954C9.76655 10.3956 9.85057 9.95734 9.88506 9.53554C13.1641 8.72613 13.7422 5.86593 13.7128 5.44954C13.7071 5.37005 13.6702 5.29622 13.6102 5.24405C13.5502 5.19216 13.4719 5.16635 13.3924 5.17145C11.8258 5.28304 10.2025 5.99495 9.57249 7.59125C9.43928 7.27594 9.259 6.93784 9.02018 6.56434C9.71466 2.29802 6.43233 0.2205 5.79186 0.0144139C5.68027 -0.0215861 5.55726 0.0111092 5.47805 0.0984022C5.19666 0.40739 4.85375 1.83421 5.22936 3.34589C5.51736 4.5051 6.32286 6.04768 8.50504 6.8715C9.09363 7.78711 9.29644 8.42221 9.30305 9.09872C9.30274 9.16502 9.29795 9.22771 9.30034 9.29612C9.28175 9.73322 9.19326 10.2003 9.08164 10.7823C8.93163 11.5635 8.75163 12.5055 8.66405 13.7895C7.96173 11.4543 6.70715 9.30002 5.04665 9.30002C4.91886 9.30002 4.80484 9.38134 4.76315 9.50221C3.88565 12.0447 4.05036 14.4402 5.21466 16.0737C6.08703 17.298 7.46673 18 8.99944 18H8.99976H9.00007H9.00067C9.00788 18 9.01477 17.9997 9.02198 17.9991C9.02258 17.9991 9.02317 17.9988 9.02377 17.9988C10.5472 17.9913 11.9173 17.2917 12.7852 16.0737C13.9498 14.4402 14.1141 12.0447 13.2366 9.50221ZM11.232 7.2051C11.3478 7.08659 11.538 7.08511 11.6562 7.2006C11.7747 7.31668 11.7765 7.5066 11.6607 7.62479L9.89104 9.4314C9.90844 9.15451 9.90183 8.8824 9.86193 8.60372L11.232 7.2051ZM8.51734 5.5968L7.61854 3.84571C7.54295 3.6984 7.36204 3.63962 7.21473 3.7158C7.06743 3.79139 7.00893 3.9723 7.08483 4.11961L8.05775 6.0153C6.94023 5.4303 6.20104 4.54922 5.86115 3.384C5.52695 2.23921 5.69047 1.15861 5.83355 0.706183C6.53555 1.1154 8.61993 2.59502 8.51734 5.5968Z" fill="#16A34A"/>
</g>
<defs>
<clipPath id="clip0_634_750">
<rect width="18" height="18" fill="white"/>
</clipPath>
</defs>
</svg>
