<svg width="16" height="16" viewBox="0 0 16 16" fill="none" xmlns="http://www.w3.org/2000/svg">
<path d="M10.8954 4.22642C12.0625 4.22642 13.0086 3.2803 13.0086 2.11321C13.0086 0.946115 12.0625 0 10.8954 0C9.72834 0 8.78223 0.946115 8.78223 2.11321C8.78223 3.2803 9.72834 4.22642 10.8954 4.22642Z" fill="#3D4F83"/>
<path d="M9.82267 14.9358C9.81754 14.9065 9.80879 14.8784 9.80094 14.85C9.79279 14.8213 9.78524 14.793 9.77437 14.7652C9.76441 14.7401 9.75233 14.7172 9.74056 14.6933C9.72577 14.6635 9.71098 14.6339 9.69286 14.6055C9.68049 14.5865 9.6663 14.5693 9.65271 14.5512C9.63098 14.5222 9.60894 14.4935 9.58328 14.4669C9.56667 14.4497 9.54826 14.4352 9.53015 14.4192C9.50962 14.4008 9.4915 14.3806 9.46886 14.364C9.46886 14.364 7.88094 13.2506 6.89015 12.5557C6.46992 12.261 6.38962 11.673 6.71294 11.2748L9.49513 7.84896C10.2737 6.87719 10.1158 5.44504 9.14403 4.66617C8.17226 3.8873 6.74011 4.04549 5.96124 5.01727L2.58011 9.17998C1.80154 10.1518 1.95943 11.5839 2.9312 12.3625C3.10901 12.505 3.39339 12.6161 3.65996 12.6964C4.15596 12.8461 4.6263 13.0692 5.04441 13.3747L6.04335 14.1047C6.07958 14.1309 6.06086 14.1883 6.01618 14.1883H3.23701C2.79898 14.1883 2.39505 14.4817 2.30962 14.9113C2.1952 15.4888 2.63928 15.9999 3.19716 15.9999H8.93301C8.95415 15.9999 8.97377 15.9951 8.9946 15.9936C9.02811 15.9912 9.06162 15.9893 9.09452 15.9833C9.11988 15.9788 9.14433 15.9712 9.16909 15.9643C9.2026 15.9552 9.2355 15.9462 9.26781 15.9335C9.28652 15.9259 9.30403 15.9166 9.32215 15.9078C9.35898 15.8903 9.3946 15.8719 9.42901 15.8496C9.43988 15.8423 9.44984 15.8342 9.46041 15.8263C9.49815 15.7995 9.53437 15.7705 9.56788 15.7376C9.57483 15.7309 9.58056 15.7231 9.5869 15.7161C9.61377 15.6881 9.64184 15.6612 9.66539 15.6289C9.67143 15.6204 9.67505 15.6111 9.68079 15.6023C9.68562 15.5951 9.68924 15.5869 9.69407 15.5797C9.72094 15.5374 9.746 15.4942 9.76501 15.4493C9.76954 15.439 9.77196 15.4275 9.77588 15.4173C9.79249 15.3735 9.80758 15.3297 9.81724 15.2844C9.82147 15.2651 9.82207 15.2446 9.82509 15.225C9.83052 15.1869 9.83626 15.1489 9.83686 15.1105C9.83686 15.1048 9.83867 15.0994 9.83867 15.0936C9.83867 15.0716 9.83384 15.0511 9.83233 15.0296C9.82992 14.9985 9.82841 14.9669 9.82267 14.9358Z" fill="#3D4F83"/>
<path d="M13.4279 6.20979C12.9917 5.91817 12.4009 6.01175 12.0298 6.38277L10.7683 7.64435C10.7432 7.66941 10.7028 7.66941 10.6777 7.64435L9.93898 6.90564C9.86834 7.24103 9.72313 7.56496 9.49521 7.84934L8.7417 8.77703L9.894 9.92903C10.1207 10.1558 10.4247 10.2566 10.7233 10.2397C11.0218 10.2566 11.3255 10.1558 11.5526 9.92903L13.5985 7.88315C14.0703 7.41069 14.0138 6.60134 13.4279 6.20979Z" fill="#3D4F83"/>
</svg>
