<svg width="16" height="22" viewBox="0 0 16 22" fill="none" xmlns="http://www.w3.org/2000/svg">
<g clip-path="url(#clip0_633_704)">
<path d="M10.4899 4.47998C11.5899 4.47998 12.4899 3.57998 12.4899 2.47998C12.4899 1.37998 11.5899 0.47998 10.4899 0.47998C9.38989 0.47998 8.48989 1.37998 8.48989 2.47998C8.48989 3.57998 9.38989 4.47998 10.4899 4.47998ZM6.88989 18.38L7.88989 13.98L9.98989 15.98V21.98H11.9899V14.48L9.88989 12.48L10.4899 9.47998C11.7899 10.98 13.7899 11.98 15.9899 11.98V9.97998C14.0899 9.97998 12.4899 8.97998 11.6899 7.57998L10.6899 5.97998C10.2899 5.37998 9.68989 4.97998 8.98989 4.97998C8.68989 4.97998 8.48989 5.07998 8.18989 5.07998L2.98989 7.27998V11.98H4.98989V8.57998L6.78989 7.87998L5.18989 15.98L0.289892 14.98L-0.110107 16.98L6.88989 18.38Z" fill="#65A30D"/>
</g>
<defs>
<clipPath id="clip0_633_704">
<rect width="16" height="22" fill="white"/>
</clipPath>
</defs>
</svg>
