<svg width="16" height="16" viewBox="0 0 16 16" fill="none" xmlns="http://www.w3.org/2000/svg">
<path d="M6.92361 1.85012C6.98455 0.0581189 4.95789 -0.221819 4.23486 0.134494C4.42327 2.20112 6.00005 2.24662 6.92361 1.85012Z" fill="#C61823"/>
<path d="M14.8428 6.04907C14.8782 6.1391 14.8964 6.18563 14.9024 6.20082C14.8941 6.17982 14.8701 6.1181 14.8428 6.04907Z" fill="#C61823"/>
<path d="M14.8246 6.00212C14.8306 6.01777 14.8367 6.03349 14.8428 6.04915C14.8369 6.03374 14.8314 6.01983 14.8243 6.00158C14.6832 5.64121 14.7537 5.82152 14.824 6.00137C14.3737 4.85043 13.4739 3.90162 12.2972 3.48837C11.0198 3.04024 9.68835 3.29465 8.4241 3.64365C8.4001 2.95299 8.45851 2.26033 8.55663 1.57649C8.61226 1.19058 8.87854 0.392209 8.21798 0.364897C7.66973 0.342147 7.66819 1.07602 7.61482 1.4503C7.51166 2.16827 7.45072 2.89587 7.47044 3.62165C7.16672 3.57108 6.86682 3.45802 6.56432 3.3953C6.11316 3.30224 5.65366 3.24408 5.19263 3.24355C4.30422 3.24355 3.42744 3.47899 2.69635 3.99315C1.27663 4.99208 0.723787 6.73502 0.747819 8.40965C0.7741 10.2229 1.38813 11.9544 2.42119 13.4333C2.87716 14.0863 3.40138 14.7125 4.04932 15.1836C4.67901 15.6413 5.38229 15.8558 6.14579 15.965C6.46997 16.0118 6.80004 16.0131 7.12319 15.9602C7.40541 15.9142 7.66969 15.7951 7.94963 15.7478C8.16107 15.7121 8.45922 15.8785 8.66379 15.924C9.01254 16.0024 9.37138 16.0186 9.72669 15.9781C11.0268 15.83 12.0568 15.2435 12.9124 14.2602C14.7939 12.0978 15.9153 8.78749 14.8246 6.00212ZM4.63429 7.72762C3.96666 7.72762 3.42572 7.18668 3.42572 6.51905C3.42572 5.85143 3.96666 5.31049 4.63429 5.31049C5.30166 5.31049 5.84285 5.85143 5.84285 6.51905C5.84285 7.18668 5.30166 7.72762 4.63429 7.72762Z" fill="#C61823"/>
</svg>
