<svg width="16" height="16" viewBox="0 0 16 16" fill="none" xmlns="http://www.w3.org/2000/svg">
<g clip-path="url(#clip0_634_723)">
<path d="M13.8774 0H2.12256C0.95232 0 0 0.95232 0 2.12256V13.8774C0 15.0474 0.95232 16 2.12256 16H13.8774C15.0474 16 16 15.0474 16 13.8774V2.12256C16 0.95232 15.0474 0 13.8774 0ZM5.28 9.19808C5.27712 9.23168 5.26496 9.26176 5.24288 9.288C5.19008 9.3584 5.00032 9.40416 4.67232 9.42464C4.57376 9.43168 4.5104 9.43712 4.4832 9.43968C4.17568 9.49888 3.8224 9.63872 3.42048 9.85984L3.39296 9.87488C3.04288 10.0662 2.76992 10.1616 2.56768 10.1616H2.53568L2.504 10.16C2.1888 10.1232 1.9904 9.82048 1.91072 9.25376C1.88896 9.10176 1.8784 8.92736 1.8784 8.7296C1.8784 8.66688 1.87936 8.60096 1.88224 8.53344C1.88608 8.39904 1.8944 8.25408 1.90464 8.09824C1.78656 8.07744 1.70336 8.03072 1.6576 7.95744C1.63648 7.92544 1.62592 7.88992 1.62592 7.85184C1.62592 7.84224 1.62656 7.832 1.62752 7.82368C1.632 7.7952 1.63872 7.76512 1.65184 7.73312C1.672 7.68448 1.71552 7.61696 1.78496 7.52928C1.816 7.4864 1.83808 7.45632 1.848 7.4384C1.90048 7.35296 1.94112 7.20192 1.9696 6.9856C1.98304 6.88 1.99552 6.80032 2.00736 6.74688C1.97824 6.74688 1.95232 6.7456 1.92928 6.74336C1.77024 6.72416 1.66656 6.66976 1.62176 6.58048C1.60736 6.55168 1.6 6.52096 1.6 6.48736C1.6 6.47712 1.60064 6.46624 1.6016 6.4544C1.60832 6.40256 1.62784 6.34752 1.66336 6.28736C1.72928 6.17408 1.87872 6.0816 2.11264 6.01024C2.24192 5.96896 2.33504 5.93152 2.3872 5.89792C2.51584 5.81248 2.62368 5.76992 2.7088 5.76992C2.7168 5.76992 2.72576 5.77056 2.73536 5.77248C2.81632 5.78144 2.91616 5.83968 3.0352 5.9488C3.06752 5.9808 3.1216 6.00064 3.192 6.00768C3.21696 6.01088 3.24544 6.01248 3.27456 6.01248C3.39648 6.01248 3.55712 5.98816 3.75488 5.93952C3.96384 5.89152 4.11584 5.8672 4.21184 5.8672C4.22912 5.8672 4.24544 5.86784 4.25856 5.86912L4.27392 5.87104C4.41472 5.88736 4.50016 5.9456 4.52608 6.04768C4.53024 6.06336 4.53344 6.08032 4.53344 6.09824C4.53344 6.10816 4.5328 6.1184 4.52992 6.12896C4.52672 6.1648 4.5152 6.20192 4.49568 6.23872C4.45984 6.30752 4.40384 6.36704 4.33344 6.4176C4.16128 6.5376 3.9024 6.59776 3.5584 6.59776C3.52672 6.59776 3.49632 6.59616 3.46336 6.59488C3.43712 6.5936 3.38752 6.5888 3.3136 6.58176C3.22592 6.57312 3.14752 6.56864 3.0784 6.56864C2.88 6.56864 2.76096 6.60608 2.71712 6.68096C2.6736 6.76608 2.64 6.90336 2.6176 7.09248C2.61248 7.13504 2.60832 7.1808 2.60224 7.23072C2.60224 7.25216 2.60128 7.27488 2.59904 7.29728C3.07008 7.232 3.50368 7.19936 3.9024 7.19808C3.91328 7.19808 3.93664 7.19744 3.97376 7.19552C4.01728 7.19392 4.05856 7.1936 4.09536 7.1936C4.15456 7.1936 4.20352 7.19552 4.2416 7.2C4.3648 7.2144 4.44896 7.25216 4.49216 7.31232C4.51744 7.34592 4.5296 7.38112 4.5296 7.41824V7.43328C4.52864 7.44832 4.52416 7.46208 4.5168 7.4752C4.49152 7.5488 4.424 7.62016 4.312 7.6912C4.22176 7.74816 4.14048 7.7856 4.07072 7.80352C3.90944 7.84384 3.664 7.86432 3.33728 7.86432H3.304L3.2128 7.8624C3.18912 7.8624 3.152 7.86112 3.10016 7.8576C3.048 7.85536 3.00064 7.85376 2.96 7.85376C2.90144 7.85376 2.85696 7.85632 2.82112 7.8624C2.72096 7.87872 2.65152 7.91872 2.61344 7.98304C2.55424 8.08608 2.51264 8.25056 2.48672 8.47872L2.48224 8.51968C2.47456 8.60192 2.47168 8.67968 2.47168 8.75136C2.47168 8.91744 2.49184 9.05152 2.53504 9.15648C2.57536 9.25024 2.63328 9.30624 2.70688 9.32352C2.72256 9.32576 2.73824 9.32896 2.7536 9.33024C2.776 9.3328 2.79968 9.33408 2.82496 9.33408C2.9968 9.33408 3.24768 9.27296 3.57696 9.14784C3.672 9.11168 3.74048 9.08544 3.78464 9.07104C4.17184 8.93728 4.50368 8.8704 4.78304 8.8704C4.84672 8.8704 4.9072 8.87488 4.9632 8.8816C5.01312 8.888 5.0608 8.89536 5.10368 8.90624C5.176 8.92192 5.22848 8.97792 5.2624 9.07328C5.27552 9.10752 5.28256 9.14208 5.28256 9.17408C5.28352 9.18112 5.28288 9.1888 5.28 9.19808ZM7.60128 9.26016C7.58848 9.34624 7.51168 9.4272 7.37088 9.50432C7.23968 9.57568 7.12032 9.61216 7.01024 9.61216H6.98368C6.7168 9.59328 6.32672 9.58208 5.81248 9.5808C5.64992 9.58016 5.53472 9.54752 5.46432 9.48352C5.41984 9.44448 5.39744 9.3952 5.39744 9.33664V9.33184C5.39744 9.23552 5.4512 9.14528 5.56032 9.06336C5.6752 8.97536 5.81408 8.9296 5.97568 8.9248L6.33248 8.92288C6.79744 8.92288 7.14944 8.96032 7.38816 9.03552C7.53248 9.07968 7.60384 9.14496 7.60384 9.23296C7.60384 9.24224 7.60256 9.25056 7.60128 9.26016ZM7.7152 8.41888C7.7152 8.51456 7.6272 8.5872 7.45152 8.63744C7.33952 8.66816 7.20992 8.68352 7.05856 8.68352C6.93632 8.68352 6.75104 8.66976 6.50272 8.64224C6.27712 8.61728 6.11328 8.6048 6.01312 8.6048C5.98912 8.6048 5.94656 8.60672 5.88352 8.61152C5.76992 8.62144 5.68224 8.62656 5.6224 8.62656C5.41568 8.62656 5.28608 8.584 5.22912 8.4992C5.20544 8.46528 5.19552 8.42624 5.19552 8.3824C5.19552 8.34304 5.20416 8.29856 5.2256 8.24864C5.29664 8.0816 5.488 7.99744 5.80192 7.99744H6.19072C6.59008 7.99744 6.9056 8.0112 7.13952 8.03744C7.24192 8.04864 7.35584 8.08928 7.48384 8.16096C7.6336 8.24096 7.71072 8.32448 7.71584 8.40864V8.4192L7.7152 8.41888ZM11.0554 10.2144C11.024 10.2144 10.9862 10.208 10.9446 10.1965C10.7798 10.151 10.6646 10.0806 10.5962 9.98304C10.5206 9.87616 10.4493 9.6992 10.3856 9.45088C10.3149 9.19168 10.2506 9.01184 10.1888 8.91168C10.1888 8.91296 10.1581 9.02496 10.0947 9.24608C10.0451 9.42048 9.99712 9.5648 9.95136 9.67968C9.8112 10.0387 9.65376 10.2221 9.4832 10.2298H9.47776C9.34112 10.2298 9.23552 9.99776 9.16 9.53472C9.1072 9.21632 9.07936 9.05472 9.07936 9.05024C9.05056 8.90208 9.016 8.82848 8.97664 8.82848C8.97664 8.83968 8.86592 9.15104 8.64768 9.76128C8.576 9.95872 8.49952 10.0893 8.41504 10.153C8.37056 10.1866 8.32256 10.2042 8.27136 10.2042C8.19872 10.2042 8.12064 10.1709 8.03584 10.1066H8.03744C8.04576 10.1066 8.04832 10.0365 8.04832 9.89536C8.04832 9.70048 8.04096 9.37056 8.02656 8.9072V8.90048C8.02656 8.83808 8.04544 8.77376 8.07904 8.7072C8.11712 8.63712 8.13728 8.57088 8.13728 8.50912C8.13728 8.43072 8.18976 8.3872 8.296 8.38016C8.42464 8.37312 8.4896 8.36832 8.49312 8.36704C8.53088 8.33056 8.584 8.27008 8.6496 8.18816C8.71328 8.1088 8.76288 8.0544 8.79712 8.02336C8.86016 7.96768 8.9264 7.9392 8.99968 7.9392C9.05984 7.9392 9.12416 7.95968 9.19104 7.99936C9.28544 8.05504 9.37088 8.2304 9.44672 8.52512C9.54112 8.89312 9.59296 9.08704 9.60192 9.10592C9.62176 9.06656 9.69248 8.82976 9.81792 8.39488C9.90464 8.0944 10.0128 7.91392 10.143 7.85408C10.4282 7.89952 10.6637 8.20192 10.8499 8.76256C10.897 8.90272 10.9629 9.13376 11.0461 9.45568C11.1174 9.7328 11.1744 9.9232 11.2144 10.0256C11.2138 10.1514 11.1619 10.2144 11.0554 10.2144ZM12.9091 10.0982C12.6762 10.1862 12.4726 10.2304 12.2922 10.2304C12.0122 10.2304 11.7955 10.1235 11.641 9.90848C11.5302 9.75648 11.4739 9.56384 11.4669 9.33216V9.28C11.4669 9.07904 11.505 8.87936 11.5824 8.68096C11.6662 8.46112 11.7834 8.28384 11.9286 8.15072C12.0848 8.01152 12.2522 7.94208 12.4336 7.94208H12.4486C12.6154 7.94208 12.7248 8.01152 12.7757 8.15072C12.7891 8.18752 12.7965 8.22144 12.7965 8.2544C12.7965 8.35264 12.737 8.43552 12.6221 8.5024C12.3834 8.64608 12.2365 8.74528 12.1846 8.8C12.0909 8.89472 12.0451 9.00512 12.0451 9.12736C12.0451 9.18752 12.057 9.25216 12.079 9.32064C12.1318 9.47392 12.239 9.54976 12.4061 9.54976C12.4323 9.54976 12.4598 9.54784 12.4886 9.54304C12.6266 9.52512 12.8416 9.44992 13.1341 9.31648C13.4387 9.17824 13.6397 9.10016 13.737 9.08288C13.767 9.0768 13.7965 9.07424 13.8214 9.07424C13.9475 9.07424 14.0138 9.1424 14.0214 9.27968C13.9763 9.56 13.6051 9.83264 12.9091 10.0982ZM14.3914 7.71808C14.3827 7.7648 14.336 7.79904 14.2528 7.81888C14.2198 7.8272 14.161 7.83584 14.0762 7.8432C13.9904 7.85024 13.9018 7.8544 13.8118 7.8544C13.6502 7.8544 13.479 7.84256 13.2986 7.81888C13.1869 7.80512 13.1206 7.76256 13.0992 7.69216C13.0954 7.6784 13.0925 7.66464 13.0925 7.65152C13.0925 7.59456 13.1325 7.5392 13.2099 7.48512C13.5194 7.26912 13.7517 7.05056 13.9123 6.8272C13.9398 6.7888 13.9549 6.752 13.9581 6.71776V6.71264C13.9581 6.68352 13.9485 6.65984 13.9286 6.63936C13.9018 6.6128 13.8688 6.59968 13.8259 6.59968C13.7978 6.59968 13.7632 6.60576 13.7258 6.61824C13.6298 6.65024 13.5462 6.73344 13.472 6.86976C13.4608 6.89152 13.4394 6.90752 13.4122 6.9184C13.392 6.92544 13.3728 6.92928 13.3514 6.92928C13.3453 6.92928 13.3389 6.92928 13.3331 6.92896C13.303 6.9248 13.2797 6.9136 13.264 6.896C13.2512 6.88128 13.2454 6.864 13.2454 6.8448C13.2454 6.83776 13.2461 6.8304 13.248 6.82304C13.2742 6.68288 13.3549 6.56608 13.4893 6.46976C13.615 6.38144 13.7482 6.33728 13.8867 6.33728H13.9046C14.0467 6.33728 14.1478 6.39296 14.2093 6.5024C14.2387 6.55776 14.2538 6.61632 14.2538 6.67712C14.2538 6.73152 14.2422 6.78816 14.2205 6.84768C14.1709 6.97088 14.0691 7.09888 13.9155 7.22944C13.7171 7.39808 13.601 7.50336 13.5674 7.54432C13.7325 7.5632 13.8643 7.57536 13.9642 7.58048H13.9712C13.9974 7.58048 14.0509 7.5744 14.1331 7.56224C14.1766 7.55584 14.2131 7.55328 14.2442 7.55328C14.2669 7.55328 14.2874 7.55488 14.3011 7.5584C14.3504 7.5584 14.3824 7.57632 14.3949 7.61216C14.399 7.624 14.4 7.63648 14.4 7.6512C14.4 7.67008 14.3981 7.6928 14.3914 7.71808Z" fill="#E21159"/>
</g>
<defs>
<clipPath id="clip0_634_723">
<rect width="16" height="16" fill="white"/>
</clipPath>
</defs>
</svg>
