<svg width="17" height="18" viewBox="0 0 17 18" fill="none" xmlns="http://www.w3.org/2000/svg">
<path d="M10.0001 5.57007C9.21007 5.57007 8.57007 6.21007 8.57007 7.00007C8.57007 7.79007 9.21007 8.43007 10.0001 8.43007C10.7901 8.43007 11.4301 7.79007 11.4301 7.00007C11.4301 6.21007 10.7901 5.57007 10.0001 5.57007Z" fill="#EF7D2A"/>
<path d="M10.0001 0C6.25007 0 3.20007 2.94 3.02007 6.64L1.10007 9.2C0.850069 9.53 1.09007 10 1.50007 10H3.00007V13C3.00007 14.1 3.90007 15 5.00007 15H6.00007V18H13.0001V13.32C15.3601 12.2 17.0001 9.79 17.0001 7C17.0001 3.13 13.8701 0 10.0001 0ZM13.0001 7C13.0001 7.13 12.9901 7.26 12.9801 7.39L13.8101 8.05C13.8901 8.11 13.9101 8.21 13.8601 8.3L13.0601 9.69C13.0101 9.78 12.9001 9.81 12.8201 9.78L11.8301 9.38C11.6201 9.54 11.4001 9.67 11.1601 9.77L11.0001 10.83C10.9901 10.93 10.9001 11 10.8001 11H9.20007C9.10007 11 9.02007 10.93 9.00007 10.83L8.85007 9.77C8.60007 9.67 8.38007 9.54 8.17007 9.38L7.18007 9.78C7.09007 9.81 6.98007 9.78 6.93007 9.69L6.13007 8.3C6.08007 8.22 6.10007 8.11 6.18007 8.05L7.02007 7.39C7.01007 7.26 7.00007 7.13 7.00007 7C7.00007 6.87 7.02007 6.73 7.04007 6.61L6.19007 5.95C6.11007 5.89 6.09007 5.79 6.14007 5.69L6.94007 4.31C6.99007 4.22 7.09007 4.19 7.18007 4.22L8.18007 4.62C8.38007 4.47 8.61007 4.33 8.85007 4.23L9.00007 3.17C9.02007 3.07 9.10007 3 9.20007 3H10.8001C10.9001 3 10.9801 3.07 11.0001 3.17L11.1501 4.23C11.3901 4.33 11.6101 4.46 11.8201 4.62L12.8201 4.22C12.9101 4.19 13.0201 4.22 13.0601 4.31L13.8601 5.69C13.9101 5.78 13.8901 5.89 13.8101 5.95L12.9601 6.61C12.9901 6.73 13.0001 6.86 13.0001 7Z" fill="#EF7D2A"/>
</svg>
