<svg width="18" height="18" viewBox="0 0 18 18" fill="none" xmlns="http://www.w3.org/2000/svg">
<path d="M4.63429 4.92381L5.72381 3.1181L6.50857 1.81524C6.80571 1.32 7.5219 1.32 7.81905 1.81524L8.94667 3.68952L8.00952 5.25905L7.24762 6.49333L4.63429 4.92381ZM16.7867 9.3581L15.5676 7.33143L12.9314 8.85524L14.6152 11.6667H15.4762C16.0552 11.6667 16.581 11.339 16.84 10.821C16.9467 10.6076 17 10.379 17 10.1429C17 9.86857 16.9238 9.60191 16.7867 9.3581ZM12.4286 15.4762H13.5714C14.1505 15.4762 14.6762 15.1486 14.9352 14.6305L16.04 12.4286H12.4286V10.9048L9.38095 13.9524L12.4286 17V15.4762ZM7.85714 12.4286H4.58095L3.94095 13.5029C3.71238 13.8838 3.69714 14.3562 3.89524 14.76C4.10857 15.1943 4.5581 15.4762 5.05333 15.4762H7.85714V12.4286ZM4.90095 10.4095L6.21905 11.2019L5.17524 7.01905L1 8.06286L2.29524 8.84L1.98286 9.36571C1.71619 9.81524 1.69333 10.3638 1.92952 10.8286L3.17143 13.3124L4.90095 10.4095ZM13.2057 3.39238L12.2152 1.73905C11.9333 1.2819 11.4381 1 10.9048 1H8.21524L10.5924 4.9619L9.2819 5.74667L13.4648 6.79048L14.5086 2.60762L13.2057 3.39238Z" fill="#04560C"/>
</svg>
