<svg width="220" height="40" viewBox="0 0 220 40" fill="none" xmlns="http://www.w3.org/2000/svg">
<path d="M53.1547 16.6256L53.1354 27.3966C53.1354 27.7963 53.187 28.1186 53.2901 28.3635C53.3803 28.6085 53.5028 28.8018 53.6575 28.9437C53.8122 29.0855 53.9862 29.1757 54.1796 29.2144C54.3601 29.2659 54.5277 29.2917 54.6824 29.2917C54.7082 29.2917 54.734 29.2917 54.7598 29.2917C54.7855 29.2788 54.8371 29.2724 54.9145 29.2724C55.0047 29.2724 55.1272 29.2595 55.2819 29.2337C55.4495 29.2208 55.6815 29.2015 55.978 29.1757L56.5195 26.8745C56.6613 26.3717 56.8418 25.9463 57.0609 25.5982C57.2672 25.2502 57.4993 24.9665 57.7571 24.7474C58.002 24.5411 58.2663 24.3864 58.5499 24.2833C58.8207 24.193 59.0978 24.1479 59.3815 24.1479C59.7166 24.1479 60.026 24.1995 60.3097 24.3026C60.5933 24.4186 60.8318 24.5798 61.0252 24.7861C61.2314 24.9923 61.3926 25.2437 61.5086 25.5402C61.6246 25.8367 61.6826 26.1719 61.6826 26.5458C61.6826 26.9068 61.644 27.3 61.5666 27.7254C61.5021 28.1508 61.3926 28.5698 61.2379 28.9823C61.0961 29.3949 60.9156 29.7945 60.6964 30.1813C60.4773 30.5551 60.2194 30.8903 59.9229 31.1868C59.6264 31.4704 59.2912 31.7025 58.9173 31.883C58.5435 32.0635 58.1309 32.1537 57.6797 32.1537H48.6297C47.5984 32.1537 46.6766 32.0957 45.8644 31.9797C45.0523 31.8507 44.3754 31.6638 43.834 31.4189C43.2796 31.161 42.8607 30.8387 42.577 30.452C42.2934 30.0523 42.1516 29.5818 42.1516 29.0403C42.1516 28.8212 42.2032 28.6665 42.3063 28.5762C42.4094 28.486 42.5384 28.4151 42.6931 28.3635C42.8478 28.312 43.0154 28.2668 43.1958 28.2282C43.3763 28.1766 43.5439 28.0992 43.6986 27.9961C43.8533 27.8801 43.9822 27.7189 44.0854 27.5127C44.1885 27.2935 44.2401 26.9906 44.2401 26.6038V16.6256C44.2401 16.2388 44.1885 15.9359 44.0854 15.7167C43.9822 15.5104 43.8533 15.3493 43.6986 15.2333C43.5439 15.1301 43.3763 15.0528 43.1958 15.0012C43.0154 14.9625 42.8478 14.9174 42.6931 14.8658C42.5384 14.8143 42.4094 14.7434 42.3063 14.6531C42.2032 14.5629 42.1516 14.4146 42.1516 14.2084C42.1516 13.654 42.2934 13.1835 42.577 12.7967C42.8607 12.3971 43.2796 12.0748 43.834 11.8298C44.3754 11.572 45.0523 11.3851 45.8644 11.269C46.6766 11.153 47.5984 11.095 48.6297 11.095C49.7126 11.095 50.6666 11.153 51.4917 11.269C52.3168 11.3851 53.0129 11.572 53.5802 11.8298C54.1345 12.0748 54.5535 12.3971 54.8371 12.7967C55.1207 13.1835 55.2625 13.654 55.2625 14.2084C55.2625 14.4146 55.211 14.5629 55.1078 14.6531C55.0047 14.7434 54.8758 14.8143 54.7211 14.8658C54.5664 14.9174 54.3988 14.9625 54.2183 15.0012C54.0249 15.0528 53.8509 15.1301 53.6962 15.2333C53.5415 15.3493 53.4126 15.5104 53.3094 15.7167C53.2063 15.9359 53.1547 16.2388 53.1547 16.6256ZM72.415 18.0179C72.1314 18.0179 71.8671 18.0823 71.6222 18.2113C71.3772 18.3402 71.1645 18.5336 70.984 18.7914C70.8036 19.0621 70.6617 19.4037 70.5586 19.8163C70.4555 20.2159 70.4039 20.6994 70.4039 21.2666H74.6195C74.6195 20.6478 74.5744 20.1321 74.4842 19.7196C74.381 19.2942 74.2392 18.959 74.0587 18.714C73.8653 18.4562 73.6333 18.2757 73.3626 18.1726C73.079 18.0695 72.7631 18.0179 72.415 18.0179ZM71.4288 14.6338C72.6148 14.6338 73.6849 14.8078 74.6389 15.1559C75.58 15.5169 76.3857 16.0068 77.0561 16.6256C77.7135 17.2315 78.2228 17.9534 78.5837 18.7914C78.9447 19.6294 79.1252 20.5253 79.1252 21.4793C79.1252 21.879 79.0672 22.1884 78.9511 22.4075C78.848 22.6267 78.6933 22.7878 78.487 22.891C78.2808 23.007 78.0294 23.0779 77.7329 23.1037C77.4364 23.1295 77.0947 23.1424 76.708 23.1424H70.3459C70.3459 24.1092 70.449 24.8956 70.6553 25.5016C70.8487 26.0946 71.1194 26.5587 71.4675 26.8939C71.8284 27.229 72.2539 27.4611 72.7438 27.59C73.2337 27.706 73.7815 27.7641 74.3875 27.7641C74.6969 27.7641 75.0256 27.7318 75.3737 27.6674C75.7089 27.6029 76.0312 27.5256 76.3406 27.4353C76.6629 27.3322 76.9529 27.229 77.2108 27.1259C77.4815 27.0228 77.7006 26.9196 77.8682 26.8165C78.0101 26.7392 78.1519 26.7005 78.2937 26.7005C78.487 26.7005 78.6417 26.7907 78.7578 26.9712C78.8738 27.1388 78.9318 27.3257 78.9318 27.532C78.9318 27.6094 78.9254 27.6803 78.9125 27.7447C78.9125 27.7963 78.8996 27.8543 78.8738 27.9188C78.616 28.5762 78.2679 29.1821 77.8296 29.7365C77.3784 30.2908 76.8433 30.7743 76.2245 31.1868C75.5928 31.5865 74.858 31.9023 74.0201 32.1344C73.195 32.3664 72.2668 32.4824 71.2354 32.4824C70.2557 32.4824 69.3532 32.3664 68.5282 32.1344C67.716 31.9023 66.9811 31.5736 66.3237 31.1481C65.6662 30.7356 65.0925 30.2457 64.6026 29.6785C64.1127 29.1112 63.7002 28.4989 63.365 27.8414C63.0427 27.171 62.8042 26.4749 62.6495 25.7529C62.4819 25.0181 62.3981 24.2833 62.3981 23.5485C62.3981 22.8007 62.4819 22.0595 62.6495 21.3246C62.8171 20.5898 63.0685 19.8872 63.4037 19.2168C63.7389 18.5593 64.1579 17.9534 64.6606 17.3991C65.1634 16.8318 65.75 16.342 66.4204 15.9294C67.0907 15.5298 67.8449 15.2139 68.6829 14.9819C69.5208 14.7498 70.4361 14.6338 71.4288 14.6338ZM89.0647 29.4464C89.3484 29.4464 89.5804 29.4013 89.7609 29.3111C89.9414 29.2079 90.0832 29.0726 90.1863 28.905C90.2766 28.7374 90.341 28.5247 90.3797 28.2668C90.4055 28.0219 90.4184 27.7383 90.4184 27.416C90.4184 27.1453 90.4119 26.7972 90.399 26.3717C90.399 25.9463 90.3926 25.5338 90.3797 25.1341C90.3668 24.6571 90.3539 24.1608 90.341 23.6451C90.2121 23.6322 90.0961 23.6194 89.9929 23.6065C89.8769 23.5936 89.7673 23.5871 89.6642 23.5871C89.213 23.5871 88.8391 23.6774 88.5426 23.8579C88.2332 24.0383 87.9883 24.2897 87.8078 24.612C87.6144 24.9343 87.4855 25.3146 87.421 25.7529C87.3437 26.1784 87.305 26.6489 87.305 27.1646C87.305 27.474 87.3179 27.7705 87.3437 28.0541C87.3824 28.3249 87.4662 28.5633 87.5951 28.7696C87.7111 28.9759 87.8851 29.137 88.1172 29.2531C88.3621 29.382 88.678 29.4464 89.0647 29.4464ZM95.4268 32.1537C94.9756 32.1537 94.5308 32.1279 94.0925 32.0764C93.6413 32.0248 93.2159 31.9281 92.8162 31.7863C92.4166 31.6316 92.0492 31.4124 91.714 31.1288C91.3788 30.8452 91.0952 30.4713 90.8631 30.0072C90.6827 30.4198 90.399 30.7807 90.0123 31.0901C89.6126 31.3995 89.1679 31.6574 88.678 31.8636C88.1752 32.0699 87.6466 32.2246 87.0923 32.3277C86.538 32.4309 86.0094 32.4824 85.5066 32.4824C84.6171 32.4824 83.8371 32.3793 83.1668 32.173C82.5093 31.9539 81.9485 31.6509 81.4844 31.2642C81.0203 30.8645 80.6786 30.394 80.4595 29.8525C80.2274 29.3111 80.1114 28.6987 80.1114 28.0154C80.1114 27.2162 80.2468 26.4555 80.5175 25.7336C80.7882 25.0117 81.2459 24.3864 81.8905 23.8579C82.5351 23.3164 83.3988 22.891 84.4817 22.5816C85.5646 22.2593 86.9247 22.0981 88.562 22.0981H90.3604C90.3604 21.1184 90.3281 20.3126 90.2637 19.6809C90.1992 19.0363 90.0961 18.5207 89.9543 18.1339C89.8125 17.76 89.6384 17.4958 89.4322 17.3411C89.213 17.1993 88.9552 17.1284 88.6586 17.1284C88.3235 17.1284 88.0463 17.225 87.8271 17.4184C87.5951 17.6247 87.4146 17.9212 87.2857 18.3079C87.1439 18.6947 87.0472 19.1588 86.9956 19.7003C86.9311 20.2417 86.8989 20.8541 86.8989 21.5373C86.5251 21.5373 86.1254 21.5309 85.7 21.518C85.2874 21.5051 84.8749 21.4729 84.4624 21.4213C84.0498 21.3697 83.6631 21.2859 83.3021 21.1699C82.9411 21.0668 82.6189 20.9185 82.3352 20.7252C82.0516 20.5318 81.826 20.2933 81.6584 20.0097C81.4908 19.7132 81.407 19.3586 81.407 18.9461C81.407 18.366 81.5553 17.8116 81.8518 17.2831C82.1612 16.7674 82.6317 16.3162 83.2634 15.9294C83.8951 15.5298 84.6944 15.2139 85.6613 14.9819C86.6282 14.7498 87.782 14.6338 89.1227 14.6338C90.6827 14.6338 92.0298 14.7949 93.1643 15.1172C94.2859 15.4266 95.2077 15.9036 95.9296 16.5482C96.6644 17.1799 97.2059 17.9792 97.554 18.9461C97.902 19.9001 98.0761 21.0281 98.0761 22.3302V27.0099C98.0761 27.3837 98.1276 27.6803 98.2308 27.8994C98.3339 28.1057 98.4564 28.2668 98.5982 28.3829C98.74 28.486 98.9011 28.5633 99.0816 28.6149C99.2621 28.6536 99.4233 28.6987 99.5651 28.7503C99.7069 28.8018 99.8294 28.8663 99.9325 28.9437C100.036 29.0339 100.087 29.1757 100.087 29.3691C100.087 30.2457 99.694 30.929 98.9076 31.4189C98.1083 31.9088 96.948 32.1537 95.4268 32.1537ZM110.684 19.9903L110.665 27.0679C110.665 27.4289 110.71 27.706 110.8 27.8994C110.903 28.1057 111.026 28.2604 111.168 28.3635C111.309 28.4667 111.464 28.5376 111.632 28.5762C111.799 28.6149 111.961 28.6536 112.115 28.6923C112.257 28.7438 112.373 28.8083 112.463 28.8856C112.566 28.9759 112.618 29.1177 112.618 29.3111C112.618 30.3166 112.096 31.0386 111.052 31.4769C110.02 31.9281 108.518 32.1537 106.546 32.1537C105.592 32.1537 104.754 32.1021 104.032 31.999C103.297 31.883 102.678 31.7089 102.176 31.4769C101.673 31.2448 101.293 30.9548 101.035 30.6067C100.777 30.2457 100.648 29.8138 100.648 29.3111C100.648 29.1177 100.693 28.9759 100.783 28.8856C100.886 28.8083 101.003 28.7438 101.131 28.6923C101.273 28.6536 101.428 28.6149 101.596 28.5762C101.763 28.5505 101.918 28.486 102.06 28.3829C102.201 28.2797 102.324 28.1315 102.427 27.9381C102.517 27.7447 102.562 27.4675 102.562 27.1066V20.0483C102.562 19.7003 102.517 19.4295 102.427 19.2362C102.324 19.0428 102.201 18.8945 102.06 18.7914C101.918 18.6883 101.763 18.6174 101.596 18.5787C101.428 18.5529 101.273 18.5142 101.131 18.4626C101.003 18.424 100.886 18.3595 100.783 18.2693C100.693 18.1919 100.648 18.0566 100.648 17.8632C100.648 17.3604 100.777 16.9285 101.035 16.5676C101.293 16.2195 101.673 15.923 102.176 15.678C102.678 15.446 103.297 15.2784 104.032 15.1753C104.754 15.0721 105.592 15.0205 106.546 15.0205C107.423 15.0205 108.119 15.1043 108.634 15.2719C109.163 15.4524 109.576 15.7103 109.872 16.0454C110.117 15.8779 110.375 15.7232 110.646 15.5813C110.903 15.4395 111.187 15.3106 111.496 15.1946C111.793 15.0915 112.115 15.0077 112.463 14.9432C112.824 14.8787 113.211 14.8465 113.624 14.8465C114.152 14.8465 114.661 14.9045 115.151 15.0205C115.641 15.1237 116.079 15.3042 116.466 15.562C116.84 15.8069 117.143 16.1292 117.375 16.5289C117.594 16.9285 117.704 17.4249 117.704 18.0179C117.704 18.4046 117.639 18.7849 117.51 19.1588C117.381 19.5327 117.182 19.8614 116.911 20.145C116.653 20.4286 116.331 20.6607 115.944 20.8412C115.544 21.0088 115.093 21.0926 114.59 21.0926C114.075 21.0926 113.669 21.0217 113.372 20.8799C113.089 20.7252 112.869 20.5382 112.715 20.3191C112.547 20.0999 112.431 19.8614 112.367 19.6036C112.289 19.3457 112.205 19.1072 112.115 18.8881C112.038 18.656 111.928 18.4691 111.786 18.3273C111.658 18.1726 111.451 18.0952 111.168 18.0952C110.897 18.0952 110.716 18.1275 110.626 18.1919C110.536 18.2564 110.491 18.3531 110.491 18.482C110.491 18.6367 110.523 18.8365 110.588 19.0815C110.652 19.3393 110.684 19.6422 110.684 19.9903ZM128.881 20.0483L128.842 27.0679C128.842 27.4289 128.894 27.706 128.997 27.8994C129.087 28.1057 129.21 28.2604 129.364 28.3635C129.506 28.4667 129.661 28.5376 129.828 28.5762C129.996 28.6149 130.151 28.6536 130.293 28.6923C130.434 28.7438 130.557 28.8083 130.66 28.8856C130.75 28.9759 130.795 29.1177 130.795 29.3111C130.795 30.3166 130.28 31.0386 129.248 31.4769C128.204 31.9281 126.702 32.1537 124.743 32.1537C123.789 32.1537 122.944 32.1021 122.209 31.999C121.475 31.883 120.856 31.7089 120.353 31.4769C119.85 31.2448 119.47 30.9548 119.212 30.6067C118.954 30.2457 118.825 29.8138 118.825 29.3111C118.825 29.1177 118.877 28.9759 118.98 28.8856C119.07 28.8083 119.186 28.7438 119.328 28.6923C119.47 28.6536 119.625 28.6149 119.792 28.5762C119.96 28.5505 120.115 28.486 120.256 28.3829C120.398 28.2797 120.514 28.1315 120.604 27.9381C120.708 27.7447 120.759 27.4675 120.759 27.1066V20.0483C120.759 19.7003 120.708 19.4295 120.604 19.2362C120.514 19.0428 120.398 18.8945 120.256 18.7914C120.115 18.6883 119.96 18.6174 119.792 18.5787C119.625 18.5529 119.47 18.5142 119.328 18.4626C119.186 18.424 119.07 18.3595 118.98 18.2693C118.877 18.1919 118.825 18.0566 118.825 17.8632C118.825 17.3604 118.954 16.9285 119.212 16.5676C119.47 16.2195 119.85 15.923 120.353 15.678C120.856 15.446 121.475 15.2784 122.209 15.1753C122.944 15.0721 123.789 15.0205 124.743 15.0205C125.606 15.0205 126.29 15.0915 126.792 15.2333C127.308 15.3751 127.708 15.5362 127.991 15.7167C128.314 15.9359 128.539 16.1679 128.668 16.4129C129.119 16.0906 129.661 15.8005 130.293 15.5427C130.847 15.3106 131.517 15.0979 132.304 14.9045C133.09 14.724 134.012 14.6338 135.069 14.6338C136.036 14.6338 136.874 14.7563 137.583 15.0012C138.279 15.2462 138.872 15.5684 139.362 15.9681C139.852 16.3806 140.245 16.8576 140.542 17.3991C140.851 17.9405 141.083 18.5078 141.238 19.1008C141.405 19.6938 141.515 20.2933 141.566 20.8992C141.631 21.5051 141.663 22.0788 141.663 22.6202V26.9905C141.663 27.3644 141.708 27.6545 141.798 27.8607C141.902 28.067 142.024 28.2282 142.166 28.3442C142.321 28.4473 142.482 28.5182 142.649 28.5569C142.83 28.5956 142.991 28.6407 143.133 28.6923C143.287 28.7438 143.41 28.8083 143.5 28.8856C143.603 28.9759 143.655 29.1177 143.655 29.3111C143.655 30.3166 143.139 31.0386 142.108 31.4769C141.064 31.9281 139.562 32.1537 137.602 32.1537C136.648 32.1537 135.804 32.1021 135.069 31.999C134.347 31.883 133.735 31.7089 133.232 31.4769C132.729 31.2448 132.342 30.9548 132.072 30.6067C131.814 30.2457 131.685 29.8138 131.685 29.3111C131.685 29.1177 131.736 28.9759 131.84 28.8856C131.93 28.8083 132.052 28.7438 132.207 28.6923C132.362 28.6536 132.523 28.6149 132.69 28.5762C132.858 28.5505 133.013 28.486 133.155 28.3829C133.309 28.2797 133.432 28.1315 133.522 27.9381C133.625 27.7447 133.677 27.4675 133.677 27.1066V21.46C133.677 20.9185 133.632 20.4351 133.541 20.0097C133.464 19.5842 133.322 19.2233 133.116 18.9268C132.923 18.6302 132.665 18.4046 132.342 18.2499C132.007 18.0952 131.601 18.0179 131.124 18.0179C130.815 18.0179 130.525 18.0695 130.254 18.1726C129.983 18.2757 129.745 18.4175 129.538 18.598C129.332 18.7785 129.171 18.9912 129.055 19.2362C128.939 19.494 128.881 19.7647 128.881 20.0483ZM156.708 21.2473L158.448 16.3742C158.281 16.0648 158.1 15.8263 157.907 15.6587C157.713 15.4911 157.526 15.3622 157.346 15.2719C157.165 15.1688 156.991 15.0979 156.824 15.0592C156.656 15.0077 156.514 14.9496 156.398 14.8852C156.269 14.8336 156.173 14.7563 156.108 14.6531C156.031 14.55 155.992 14.4017 155.992 14.2084C155.992 13.1126 156.56 12.3197 157.694 11.8298C158.816 11.34 160.459 11.095 162.625 11.095C163.669 11.095 164.591 11.153 165.39 11.269C166.203 11.3851 166.879 11.572 167.421 11.8298C167.975 12.0748 168.394 12.3971 168.678 12.7967C168.974 13.1835 169.123 13.654 169.123 14.2084C169.123 14.3889 169.077 14.5242 168.987 14.6145C168.897 14.7047 168.787 14.7756 168.658 14.8272C168.517 14.8787 168.368 14.9239 168.214 14.9625C168.059 14.9883 167.917 15.0334 167.788 15.0979C167.659 15.1624 167.55 15.2462 167.46 15.3493C167.369 15.4524 167.324 15.6071 167.324 15.8134C167.324 15.9165 167.337 16.0326 167.363 16.1615C167.389 16.3033 167.44 16.458 167.518 16.6256L169.277 21.3826C169.355 21.5889 169.445 21.7694 169.548 21.9241C169.664 22.0788 169.787 22.1561 169.915 22.1561C170.006 22.1561 170.109 22.0852 170.225 21.9434C170.328 21.8145 170.438 21.5825 170.554 21.2473L172.081 16.6256C172.197 16.3162 172.255 16.0583 172.255 15.8521C172.255 15.6458 172.204 15.4847 172.101 15.3686C172.01 15.2526 171.894 15.1624 171.753 15.0979C171.611 15.0334 171.456 14.9883 171.288 14.9625C171.121 14.9239 170.966 14.8787 170.824 14.8272C170.682 14.7756 170.566 14.7047 170.476 14.6145C170.373 14.5242 170.322 14.3889 170.322 14.2084C170.322 13.7829 170.405 13.3833 170.573 13.0094C170.74 12.6356 170.992 12.3068 171.327 12.0232C171.662 11.7396 172.075 11.514 172.565 11.3464C173.055 11.1788 173.615 11.095 174.247 11.095C174.905 11.095 175.478 11.1788 175.968 11.3464C176.471 11.514 176.883 11.7396 177.206 12.0232C177.541 12.3068 177.792 12.6356 177.96 13.0094C178.127 13.3833 178.211 13.7829 178.211 14.2084C178.211 14.4146 178.16 14.5629 178.057 14.6531C177.941 14.7563 177.799 14.8336 177.631 14.8852C177.464 14.9239 177.27 14.969 177.051 15.0205C176.832 15.0721 176.606 15.1559 176.374 15.2719C176.155 15.388 175.942 15.5556 175.736 15.7747C175.53 15.9939 175.356 16.3033 175.214 16.7029L171.675 26.0817C171.353 26.9454 171.063 27.7125 170.805 28.3829C170.547 29.0403 170.309 29.6205 170.089 30.1232C169.857 30.626 169.638 31.045 169.432 31.3802C169.226 31.7025 169.013 31.9732 168.794 32.1924C168.562 32.3986 168.317 32.5469 168.059 32.6371C167.788 32.7274 167.492 32.7725 167.169 32.7725C166.744 32.7725 166.351 32.65 165.99 32.4051C165.629 32.1601 165.255 31.7412 164.868 31.1481C164.494 30.5551 164.082 29.7623 163.631 28.7696C163.192 27.7769 162.683 26.5393 162.103 25.0568L160.15 20.0097L157.849 26.0623C157.359 27.3644 156.94 28.4473 156.592 29.3111C156.244 30.1619 155.915 30.8452 155.606 31.3609C155.283 31.8765 154.948 32.2439 154.6 32.4631C154.252 32.6694 153.826 32.7725 153.324 32.7725C152.898 32.7725 152.524 32.6436 152.202 32.3858C151.88 32.1279 151.538 31.696 151.177 31.0901C150.829 30.4971 150.423 29.7043 149.959 28.7116C149.495 27.7318 148.928 26.5136 148.257 25.0568L144.39 16.7029C144.222 16.3291 144.035 16.039 143.829 15.8327C143.636 15.6136 143.442 15.446 143.249 15.33C143.055 15.2139 142.868 15.1301 142.688 15.0786C142.508 15.027 142.346 14.969 142.205 14.9045C142.063 14.853 141.953 14.7756 141.876 14.6725C141.786 14.5693 141.74 14.4146 141.74 14.2084C141.74 13.1126 142.308 12.3197 143.442 11.8298C144.577 11.34 146.22 11.095 148.373 11.095C149.418 11.095 150.346 11.153 151.158 11.269C151.957 11.3851 152.634 11.572 153.188 11.8298C153.743 12.0748 154.162 12.3971 154.445 12.7967C154.729 13.1835 154.871 13.654 154.871 14.2084C154.871 14.376 154.826 14.5113 154.735 14.6145C154.645 14.7047 154.536 14.7821 154.407 14.8465C154.265 14.8981 154.117 14.9432 153.962 14.9819C153.794 15.0205 153.646 15.0721 153.517 15.1366C153.388 15.1881 153.272 15.2655 153.169 15.3686C153.079 15.4718 153.034 15.6136 153.034 15.7941C153.034 15.8972 153.053 16.0197 153.092 16.1615C153.13 16.3033 153.195 16.458 153.285 16.6256L155.451 21.3826C155.541 21.576 155.638 21.7501 155.741 21.9048C155.831 22.0595 155.941 22.1368 156.07 22.1368C156.16 22.1368 156.263 22.0723 156.379 21.9434C156.482 21.8145 156.592 21.5825 156.708 21.2473ZM186.933 18.0179C186.649 18.0179 186.385 18.0823 186.14 18.2113C185.895 18.3402 185.682 18.5336 185.502 18.7914C185.321 19.0621 185.179 19.4037 185.076 19.8163C184.973 20.2159 184.921 20.6994 184.921 21.2666H189.137C189.137 20.6478 189.092 20.1321 189.002 19.7196C188.899 19.2942 188.757 18.959 188.576 18.714C188.383 18.4562 188.151 18.2757 187.88 18.1726C187.596 18.0695 187.281 18.0179 186.933 18.0179ZM185.946 14.6338C187.132 14.6338 188.202 14.8078 189.156 15.1559C190.097 15.5169 190.903 16.0068 191.574 16.6256C192.231 17.2315 192.74 17.9534 193.101 18.7914C193.462 19.6294 193.643 20.5253 193.643 21.4793C193.643 21.879 193.585 22.1884 193.469 22.4075C193.353 22.6267 193.198 22.7878 193.005 22.891C192.798 23.007 192.547 23.0779 192.25 23.1037C191.954 23.1295 191.612 23.1424 191.226 23.1424H184.863C184.863 24.1092 184.967 24.8956 185.173 25.5016C185.366 26.0946 185.637 26.5587 185.985 26.8939C186.346 27.229 186.771 27.4611 187.261 27.59C187.751 27.706 188.299 27.7641 188.905 27.7641C189.214 27.7641 189.543 27.7318 189.891 27.6674C190.226 27.6029 190.549 27.5256 190.858 27.4353C191.18 27.3322 191.47 27.229 191.728 27.1259C191.999 27.0228 192.218 26.9196 192.386 26.8165C192.528 26.7392 192.669 26.7005 192.811 26.7005C193.005 26.7005 193.159 26.7907 193.275 26.9712C193.391 27.1388 193.449 27.3257 193.449 27.532C193.449 27.6094 193.443 27.6803 193.43 27.7447C193.43 27.7963 193.417 27.8543 193.391 27.9188C193.133 28.5762 192.785 29.1821 192.347 29.7365C191.896 30.2908 191.361 30.7743 190.742 31.1868C190.11 31.5865 189.376 31.9023 188.538 32.1344C187.713 32.3664 186.784 32.4824 185.753 32.4824C184.773 32.4824 183.871 32.3664 183.046 32.1344C182.234 31.9023 181.499 31.5736 180.841 31.1481C180.184 30.7356 179.61 30.2457 179.12 29.6785C178.63 29.1112 178.218 28.4989 177.883 27.8414C177.56 27.171 177.315 26.4749 177.148 25.7529C176.993 25.0181 176.916 24.2833 176.916 23.5485C176.916 22.8007 176.999 22.0595 177.167 21.3246C177.335 20.5898 177.586 19.8872 177.921 19.2168C178.256 18.5593 178.675 17.9534 179.178 17.3991C179.681 16.8318 180.268 16.342 180.938 15.9294C181.608 15.5298 182.362 15.2139 183.2 14.9819C184.025 14.7498 184.941 14.6338 185.946 14.6338ZM204.704 10.3022V27.0679C204.704 27.4289 204.749 27.706 204.839 27.8994C204.942 28.1057 205.065 28.2604 205.207 28.3635C205.348 28.4667 205.503 28.5376 205.671 28.5762C205.838 28.6149 205.993 28.6536 206.135 28.6923C206.277 28.7438 206.399 28.8083 206.502 28.8856C206.592 28.9759 206.638 29.1177 206.638 29.3111C206.638 30.3166 206.122 31.0386 205.091 31.4769C204.046 31.9281 202.538 32.1537 200.566 32.1537C199.624 32.1537 198.793 32.1021 198.071 31.999C197.336 31.883 196.717 31.7089 196.215 31.4769C195.712 31.2448 195.332 30.9548 195.074 30.6067C194.816 30.2457 194.687 29.8138 194.687 29.3111C194.687 29.1177 194.732 28.9759 194.822 28.8856C194.913 28.8083 195.029 28.7438 195.17 28.6923C195.325 28.6536 195.48 28.6149 195.634 28.5762C195.802 28.5505 195.957 28.486 196.099 28.3829C196.24 28.2797 196.363 28.1315 196.466 27.9381C196.556 27.7447 196.601 27.4675 196.601 27.1066V12.2553C196.601 11.8943 196.556 11.6171 196.466 11.4237C196.363 11.2433 196.24 11.1015 196.099 10.9983C195.957 10.8952 195.802 10.8243 195.634 10.7856C195.48 10.7469 195.325 10.7083 195.17 10.6696C195.029 10.6309 194.913 10.5664 194.822 10.4762C194.732 10.3989 194.687 10.2635 194.687 10.0701C194.687 9.56733 194.816 9.13546 195.074 8.77449C195.332 8.41352 195.712 8.11701 196.215 7.88496C196.717 7.65291 197.336 7.48531 198.071 7.38218C198.793 7.27905 199.624 7.22748 200.566 7.22748C201.52 7.22748 202.274 7.2726 202.828 7.36284C203.37 7.46598 203.782 7.63357 204.066 7.86562C204.336 8.09767 204.51 8.41352 204.588 8.81317C204.665 9.19992 204.704 9.69625 204.704 10.3022ZM218.047 10.3022V27.0679C218.047 27.4289 218.098 27.706 218.202 27.8994C218.292 28.1057 218.408 28.2604 218.55 28.3635C218.691 28.4667 218.846 28.5376 219.014 28.5762C219.194 28.6149 219.355 28.6536 219.497 28.6923C219.639 28.7438 219.755 28.8083 219.845 28.8856C219.948 28.9759 220 29.1177 220 29.3111C220 30.3166 219.478 31.0386 218.434 31.4769C217.389 31.9281 215.887 32.1537 213.928 32.1537C212.987 32.1537 212.149 32.1021 211.414 31.999C210.679 31.883 210.06 31.7089 209.558 31.4769C209.055 31.2448 208.675 30.9548 208.417 30.6067C208.159 30.2457 208.03 29.8138 208.03 29.3111C208.03 29.1177 208.075 28.9759 208.165 28.8856C208.256 28.8083 208.378 28.7438 208.533 28.6923C208.674 28.6536 208.829 28.6149 208.997 28.5762C209.152 28.5505 209.306 28.486 209.461 28.3829C209.603 28.2797 209.719 28.1315 209.809 27.9381C209.899 27.7447 209.944 27.4675 209.944 27.1066V12.2553C209.944 11.8943 209.899 11.6171 209.809 11.4237C209.719 11.2433 209.603 11.1015 209.461 10.9983C209.306 10.8952 209.152 10.8243 208.997 10.7856C208.829 10.7469 208.674 10.7083 208.533 10.6696C208.378 10.6309 208.256 10.5664 208.165 10.4762C208.075 10.3989 208.03 10.2635 208.03 10.0701C208.03 9.56733 208.159 9.13546 208.417 8.77449C208.675 8.41352 209.055 8.11701 209.558 7.88496C210.06 7.65291 210.679 7.48531 211.414 7.38218C212.149 7.27905 212.987 7.22748 213.928 7.22748C214.882 7.22748 215.63 7.2726 216.171 7.36284C216.713 7.46598 217.125 7.63357 217.409 7.86562C217.692 8.09767 217.866 8.41352 217.931 8.81317C218.008 9.19992 218.047 9.69625 218.047 10.3022Z" fill="white"/>
<path d="M4.00009 21.9551L10.5 23.4999L8.5 26.4999L3.00004 23.955L4.00009 21.9551Z" fill="#146BFB"/>
<path d="M20.9737 1.47008C20.3287 1.11018 19.5327 1.12743 18.6983 1.45187C19.0289 1.46457 19.3519 1.55399 19.6419 1.71305C21.3739 2.67918 21.3657 5.99642 19.6223 9.12149C19.3022 9.69561 18.9815 10.2693 18.6619 10.8434C18.0538 11.9331 17.1317 13.1077 16.7129 14.2751C16.6117 14.5565 16.3247 15.593 16.3827 15.8437C16.6022 16.7978 18.4946 13.2879 18.626 13.0526C19.4023 11.6614 20.1787 10.2697 20.9541 8.87852C22.697 5.75297 22.7057 2.43573 20.9737 1.47008ZM27.254 39.1588C26.9814 39.1588 26.7413 39.1041 26.529 38.9954C25.8231 38.6321 25.6596 37.8021 25.5015 36.9979C25.3596 36.2738 25.2255 35.5899 24.7448 35.3412C24.0259 34.9698 22.5657 35.2066 21.6926 35.3498L21.5977 35.3652C20.8065 35.4941 19.9601 35.7567 19.064 36.0356C17.8611 36.4089 16.6185 36.7957 15.4798 36.8422L15.0169 36.8609L15.0533 36.3998C15.0739 36.1387 15.1937 35.866 15.3212 35.5756C15.5824 34.9818 15.6662 34.6904 15.475 34.5399C15.0749 34.2236 13.8638 34.3482 11.8784 34.9099L11.6824 34.9655C11.5094 35.0134 11.2597 35.0911 10.9554 35.1859C8.27743 36.0198 5.31961 36.8393 4.10572 35.9982C3.77696 35.7696 3.59054 35.4313 3.56658 35.0182C3.56043 34.9095 3.59772 34.8028 3.67025 34.7215C3.74277 34.6403 3.84459 34.5912 3.95332 34.585C4.18191 34.5835 4.37361 34.7446 4.38703 34.9717C4.39613 35.1337 4.45172 35.2391 4.57393 35.323C5.56066 36.0069 9.30251 34.8404 10.7114 34.4014C11.0268 34.3032 11.2851 34.2227 11.4638 34.1728L11.6546 34.1197C13.4186 33.6203 15.164 33.2494 15.9844 33.8944C16.7066 34.4647 16.3256 35.3321 16.074 35.9057C16.0649 35.9259 16.0573 35.945 16.0482 35.9642C16.9276 35.8391 17.8865 35.5406 18.82 35.2502C19.7042 34.976 20.6181 34.6914 21.4664 34.5538L21.5608 34.5385C22.5978 34.3693 24.1649 34.1149 25.1224 34.6113C25.9548 35.0417 26.1432 35.9973 26.3085 36.8398C26.4341 37.4786 26.5529 38.0829 26.9052 38.2645C27.2143 38.4232 27.7879 38.3163 28.5662 37.9612C28.6153 37.9381 28.6686 37.9249 28.7229 37.9225C28.7771 37.9201 28.8313 37.9285 28.8823 37.9472C28.9333 37.9659 28.9801 37.9945 29.02 38.0314C29.0599 38.0683 29.092 38.1128 29.1146 38.1622C29.1371 38.2116 29.1497 38.265 29.1515 38.3193C29.1532 38.3736 29.1442 38.4277 29.125 38.4785C29.1057 38.5293 29.0766 38.5758 29.0392 38.6152C29.0019 38.6546 28.9571 38.6863 28.9074 38.7083C28.2461 39.0102 27.704 39.1588 27.254 39.1588ZM6.55315 24.9625C5.15619 24.5029 4.05061 23.728 3.46546 22.9075C0.542151 29.2066 -0.769985 34.0406 0.461161 34.7273C1.7364 35.4385 5.36322 31.4848 9.34899 25.3291C8.52423 25.4039 7.54948 25.2898 6.55315 24.9625Z" fill="url(#paint0_linear_177_419)"/>
<path d="M19.2365 1.06706C17.5951 0.15173 14.7643 2.10172 12.913 5.42136L5.65409 18.4363L5.67949 18.4502C4.96981 19.7933 4.29167 21.1527 3.64563 22.5275C4.41144 23.1879 5.50888 23.7989 6.79706 24.2226C7.83555 24.5643 8.84529 24.733 9.72708 24.7464C10.3587 23.7537 10.9729 22.7501 11.5692 21.7358L11.5942 21.7497L18.854 8.73477C20.7058 5.41513 20.8764 1.98239 19.2365 1.06706Z" fill="url(#paint1_linear_177_419)"/>
<defs>
<linearGradient id="paint0_linear_177_419" x1="-3.15733" y1="4.74828" x2="2638.88" y2="1236.75" gradientUnits="userSpaceOnUse">
<stop stop-color="#F7B83D"/>
<stop offset="0.0001" stop-color="#F7B83D"/>
<stop offset="1" stop-color="#1522F1"/>
</linearGradient>
<linearGradient id="paint1_linear_177_419" x1="0.300192" y1="5.95992" x2="1515.39" y2="712.46" gradientUnits="userSpaceOnUse">
<stop stop-color="#F7B83D"/>
<stop offset="1" stop-color="#F7B83D"/>
</linearGradient>
</defs>
</svg>
