<svg width="68" height="78" viewBox="0 0 68 78" fill="none" xmlns="http://www.w3.org/2000/svg">
<g clip-path="url(#clip0_69_273)">
<path d="M59.8573 19.8105L43.4261 70.3803C43.2198 71.0166 42.8902 71.6061 42.4561 72.1151C42.022 72.624 41.4918 73.0425 40.896 73.3466C40.3001 73.6507 39.6502 73.8344 38.9834 73.8874C38.3165 73.9403 37.6457 73.8613 37.0094 73.655L5.07127 63.2777C4.43506 63.0708 3.84586 62.7405 3.33734 62.3057C2.82883 61.871 2.41096 61.3403 2.10762 60.744C1.80427 60.1477 1.6214 59.4975 1.56945 58.8305C1.5175 58.1635 1.59749 57.4928 1.80485 56.8567L18.236 6.28696C18.6532 5.00289 19.5634 3.93715 20.7664 3.3242C21.9694 2.71124 23.3666 2.60128 24.6507 3.0185L56.5888 13.3958C57.8723 13.8138 58.9375 14.7241 59.5503 15.9269C60.1632 17.1296 60.2736 18.5265 59.8573 19.8105Z" fill="#146BFB"/>
<path d="M55.7261 17.8833L21.9276 6.90149L5.471 57.5497L39.2695 68.5315L55.7261 17.8833Z" fill="url(#paint0_linear_69_273)"/>
<path d="M56.3475 17.6426L39.9383 68.1449L10.3739 58.5388C10.3739 58.5388 6.5565 56.3456 8.58375 49.3692C10.611 42.3928 22.6856 6.70522 22.6856 6.70522L56.3475 17.6426Z" fill="white"/>
<path d="M37.4325 73.3464C38.9325 68.3665 40.45 63.2743 40.2664 58.0754C40.1625 55.1206 39.5087 52.1919 39.6011 49.2366C39.6737 46.9084 40.5553 44.6972 41.2944 42.4866C41.6854 41.3154 42.0829 40.1186 42.0814 38.884C42.0842 37.8071 41.7732 36.7184 41.9734 35.6588C43.0206 37.1047 44.1131 38.6885 44.0834 40.4735C44.0701 41.337 43.7862 42.1785 43.6523 43.0341C43.2181 45.8019 44.3555 48.5407 44.9072 51.2869C46.1182 57.3247 44.4919 63.5479 42.561 69.3945C42.1488 70.663 41.6832 71.9679 40.755 72.9281C39.8269 73.8884 38.6076 73.9817 37.4325 73.3464Z" fill="url(#paint1_linear_69_273)"/>
<path d="M12.8984 59.3053C12.8733 59.3139 12.8486 59.3238 12.8245 59.3351L10.3739 58.5388C10.3739 58.5388 6.55649 56.3456 8.58374 49.3692C8.58374 49.3692 8.54801 54.4951 13.9228 55.1428C13.9228 55.1428 9.82861 58.6359 12.8984 59.3053Z" fill="white"/>
<path d="M12.8984 59.3053C12.8733 59.3139 12.8486 59.3238 12.8245 59.3351L10.3739 58.5388C10.3739 58.5388 6.55649 56.3456 8.58374 49.3692C8.58374 49.3692 8.54801 54.4951 13.9228 55.1428C13.9228 55.1428 9.82861 58.6359 12.8984 59.3053Z" fill="url(#paint2_linear_69_273)"/>
<path d="M48.6756 26.9332L24.5901 19.1073C24.3439 19.0273 24.0794 19.1621 23.9994 19.4083C23.9194 19.6546 24.0542 19.919 24.3004 19.999L48.3859 27.8249C48.6321 27.9049 48.8966 27.7701 48.9766 27.5239C49.0566 27.2777 48.9218 27.0132 48.6756 26.9332Z" fill="url(#paint3_linear_69_273)"/>
<path d="M47.8059 29.6099L23.7204 21.784C23.4742 21.704 23.2097 21.8388 23.1297 22.085C23.0497 22.3313 23.1844 22.5957 23.4307 22.6757L47.5161 30.5016C47.7624 30.5816 48.0268 30.4468 48.1068 30.2006C48.1869 29.9544 48.0521 29.6899 47.8059 29.6099Z" fill="url(#paint4_linear_69_273)"/>
<path d="M46.9367 32.285L22.8512 24.4591C22.605 24.3791 22.3405 24.5139 22.2605 24.7601C22.1805 25.0064 22.3153 25.2708 22.5615 25.3508L46.647 33.1767C46.8932 33.2567 47.1577 33.1219 47.2377 32.8757C47.3177 32.6295 47.183 32.365 46.9367 32.285Z" fill="url(#paint5_linear_69_273)"/>
<path d="M46.067 34.9616L21.9815 27.1358C21.7353 27.0558 21.4708 27.1905 21.3908 27.4368C21.3108 27.683 21.4455 27.9475 21.6918 28.0275L45.7772 35.8533C46.0235 35.9333 46.2879 35.7986 46.368 35.5523C46.448 35.3061 46.3132 35.0416 46.067 34.9616Z" fill="url(#paint6_linear_69_273)"/>
<path d="M45.1972 37.6383L21.1117 29.8125C20.8655 29.7325 20.601 29.8672 20.521 30.1135C20.441 30.3597 20.5758 30.6242 20.822 30.7042L44.9075 38.53C45.1537 38.61 45.4182 38.4753 45.4982 38.229C45.5782 37.9828 45.4435 37.7183 45.1972 37.6383Z" fill="url(#paint7_linear_69_273)"/>
<path d="M47.4835 12.5097L47.0101 13.9665C46.8735 14.3884 46.6551 14.7792 46.3672 15.1165C46.0794 15.4538 45.7279 15.731 45.3328 15.9324C44.9377 16.1337 44.5068 16.2551 44.0647 16.2897C43.6227 16.3242 43.1781 16.2713 42.7565 16.1338L34.166 13.3426C33.7439 13.2059 33.3529 12.9874 33.0153 12.6996C32.6777 12.4117 32.4001 12.0602 32.1984 11.6651C31.9967 11.2699 31.8749 10.8389 31.8398 10.3966C31.8047 9.95434 31.8571 9.5095 31.994 9.08749L32.4674 7.63062C32.745 6.77886 33.3496 6.07224 34.1481 5.66611C34.9466 5.25998 35.8738 5.18758 36.7257 5.46484L45.3162 8.25606C45.7379 8.39286 46.1285 8.61144 46.4657 8.8993C46.8029 9.18715 47.0801 9.53865 47.2814 9.93369C47.4827 10.3287 47.6041 10.7596 47.6388 11.2016C47.6735 11.6436 47.6207 12.0881 47.4835 12.5097Z" fill="#146BFB"/>
<path d="M32.5031 7.6006L32.0293 9.05904C31.8908 9.48095 31.837 9.92606 31.8709 10.3688C31.9048 10.8116 32.0258 11.2433 32.2269 11.6392C32.428 12.0351 32.7053 12.3874 33.0429 12.6759C33.3804 12.9644 33.7716 13.1835 34.194 13.3205L34.8393 13.5301C34.4169 13.3931 34.0257 13.1741 33.6881 12.8856C33.3506 12.597 33.0733 12.2447 32.8722 11.8488C32.671 11.4529 32.5501 11.0212 32.5161 10.5785C32.4822 10.1357 32.536 9.6906 32.6745 9.26868L33.1484 7.81024C33.2852 7.38852 33.5037 6.99788 33.7916 6.66068C34.0795 6.32348 34.431 6.04631 34.826 5.84503C35.221 5.64375 35.6519 5.5223 36.0939 5.48762C36.5359 5.45294 36.9804 5.50572 37.402 5.64293L36.7567 5.43328C36.3351 5.29607 35.8906 5.24329 35.4486 5.27797C35.0066 5.31265 34.5758 5.4341 34.1808 5.63538C33.7857 5.83666 33.4342 6.11383 33.1464 6.45103C32.8585 6.78824 32.6399 7.17887 32.5031 7.6006Z" fill="url(#paint8_linear_69_273)"/>
<path d="M47.4834 12.5096L47.01 13.9665C46.8734 14.3884 46.6549 14.7791 46.3671 15.1164C46.0793 15.4538 45.7278 15.731 45.3327 15.9323C44.9376 16.1336 44.5067 16.255 44.0646 16.2896C43.6226 16.3242 43.178 16.2712 42.7564 16.1338L34.8096 13.5517C34.3875 13.415 33.9965 13.1965 33.6589 12.9087C33.3213 12.6208 33.0437 12.2693 32.842 11.8742C32.6403 11.479 32.5184 11.048 32.4833 10.6057C32.4483 10.1635 32.5007 9.71861 32.6375 9.2966L33.1109 7.83973C33.3886 6.98797 33.9931 6.28135 34.7917 5.87522C35.5902 5.46908 36.5173 5.39669 37.3692 5.67394L45.3161 8.25603C45.7378 8.39283 46.1284 8.61141 46.4656 8.89926C46.8028 9.18712 47.08 9.53862 47.2813 9.93365C47.4826 10.3287 47.604 10.7595 47.6387 11.2015C47.6734 11.6435 47.6206 12.088 47.4834 12.5096Z" fill="url(#paint9_linear_69_273)"/>
<path d="M47.8447 51.0282C48.273 52.9151 48.9924 54.7179 49.7081 56.5108C49.9093 57.0136 50.3038 57.6208 50.8263 57.4764C51.2253 57.3648 51.3678 56.8782 51.4111 56.4671C51.5936 54.7144 51.1682 52.9412 50.4596 51.3242C49.751 49.7071 48.7766 48.2294 47.8055 46.7579C47.8393 46.8088 47.1011 47.35 47.1917 47.7977C47.3497 48.5399 47.6734 50.2679 47.8447 51.0282Z" fill="url(#paint10_linear_69_273)"/>
<path d="M41.9624 36.339C41.9624 36.339 47.9922 49.271 49.2438 51.8559C50.4953 54.4408 51.5866 56.3973 51.5866 56.3973C51.5866 56.3973 53.3851 57.1865 53.664 56.5794C53.9428 55.9723 44.2512 37.6173 43.0556 36.4894L41.86 35.3616L41.9624 36.339Z" fill="#146BFB"/>
<path d="M53.6719 56.582C53.5338 56.8842 53.0166 56.8412 52.5355 56.7196C52.2156 56.6359 51.9024 56.5284 51.5986 56.3978C51.5986 56.3978 50.5064 54.4444 49.2548 51.8595C48.0032 49.2746 41.974 36.3411 41.974 36.3411L41.8815 35.3651L43.0761 36.4961C44.2586 37.6215 53.9596 55.9743 53.6719 56.582Z" fill="url(#paint11_linear_69_273)"/>
<path d="M52.7341 56.6852L52.5355 56.7196C52.2156 56.6359 51.9024 56.5284 51.5986 56.3978C51.5986 56.3978 50.5064 54.4444 49.2548 51.8595C48.0032 49.2746 41.974 36.3411 41.974 36.3411L41.8815 35.3651L52.7341 56.6852Z" fill="#146BFB"/>
<path d="M51.0348 54.4043C50.8586 54.5779 50.6087 54.8022 50.4067 54.6602C50.3548 54.6197 50.3122 54.5686 50.2818 54.5103L47.7587 50.3581C47.5152 50.8777 47.8663 51.4639 48.1785 51.9454C48.7541 52.826 49.2493 53.7565 49.6581 54.7259C49.7729 54.9975 49.892 55.2879 50.1319 55.4631C50.3718 55.6382 50.7731 55.6263 50.9043 55.3669C50.9242 55.3095 50.955 55.2564 50.995 55.2106C51.0403 55.1782 51.0939 55.1595 51.1496 55.1567L51.8082 55.0635C52.0595 55.0424 52.3052 54.9771 52.5339 54.8706C52.6475 54.816 52.745 54.733 52.8169 54.6295C52.8889 54.526 52.9328 54.4057 52.9444 54.2802C52.9656 53.2856 51.3451 54.0956 51.0348 54.4043Z" fill="white"/>
<path d="M52.468 56.9215C52.6491 57.2511 52.8803 57.5866 53.2331 57.7186C53.295 57.7464 53.3625 57.7597 53.4304 57.7573C53.4982 57.755 53.5646 57.7372 53.6245 57.7051C53.6769 57.6643 53.7178 57.6105 53.7432 57.5491C53.7686 57.4877 53.7777 57.4208 53.7696 57.3548C53.7519 57.2225 53.7106 57.0945 53.6477 56.9768L53.4136 56.4633C53.3473 56.2664 53.2207 56.0953 53.0518 55.9743C52.8521 55.8678 52.3113 55.8709 52.1867 56.1046C52.0622 56.3384 52.3732 56.7327 52.468 56.9215Z" fill="white"/>
</g>
<defs>
<linearGradient id="paint0_linear_69_273" x1="3.0237" y1="78.6445" x2="60.806" y2="-7.12044" gradientUnits="userSpaceOnUse">
<stop stop-color="#010101" stop-opacity="0"/>
<stop offset="0.47" stop-color="#010101" stop-opacity="0.47"/>
<stop offset="0.95" stop-color="#010101"/>
</linearGradient>
<linearGradient id="paint1_linear_69_273" x1="36.903" y1="55.3771" x2="81.481" y2="47.1783" gradientUnits="userSpaceOnUse">
<stop stop-color="#010101" stop-opacity="0"/>
<stop offset="0.47" stop-color="#010101" stop-opacity="0.47"/>
<stop offset="0.95" stop-color="#010101"/>
</linearGradient>
<linearGradient id="paint2_linear_69_273" x1="14.4699" y1="51.9153" x2="-6.78226" y2="65.7214" gradientUnits="userSpaceOnUse">
<stop stop-color="#010101" stop-opacity="0"/>
<stop offset="0.95" stop-color="#010101"/>
</linearGradient>
<linearGradient id="paint3_linear_69_273" x1="23.9994" y1="19.4083" x2="48.9766" y2="27.5239" gradientUnits="userSpaceOnUse">
<stop stop-color="#010101" stop-opacity="0"/>
<stop offset="0.95" stop-color="#010101"/>
</linearGradient>
<linearGradient id="paint4_linear_69_273" x1="23.1297" y1="22.085" x2="48.1068" y2="30.2006" gradientUnits="userSpaceOnUse">
<stop stop-color="#010101" stop-opacity="0"/>
<stop offset="0.95" stop-color="#010101"/>
</linearGradient>
<linearGradient id="paint5_linear_69_273" x1="22.26" y1="24.7617" x2="47.2372" y2="32.8773" gradientUnits="userSpaceOnUse">
<stop stop-color="#010101" stop-opacity="0"/>
<stop offset="0.95" stop-color="#010101"/>
</linearGradient>
<linearGradient id="paint6_linear_69_273" x1="21.3908" y1="27.4368" x2="46.368" y2="35.5523" gradientUnits="userSpaceOnUse">
<stop stop-color="#010101" stop-opacity="0"/>
<stop offset="0.95" stop-color="#010101"/>
</linearGradient>
<linearGradient id="paint7_linear_69_273" x1="20.521" y1="30.1135" x2="45.4982" y2="38.229" gradientUnits="userSpaceOnUse">
<stop stop-color="#010101" stop-opacity="0"/>
<stop offset="0.95" stop-color="#010101"/>
</linearGradient>
<linearGradient id="paint8_linear_69_273" x1="29.0498" y1="6.60002" x2="44.2756" y2="13.1093" gradientUnits="userSpaceOnUse">
<stop stop-color="#010101" stop-opacity="0"/>
<stop offset="0.47" stop-color="#010101" stop-opacity="0.47"/>
<stop offset="0.95" stop-color="#010101"/>
</linearGradient>
<linearGradient id="paint9_linear_69_273" x1="43.225" y1="2.90251" x2="37.7216" y2="16.8167" gradientUnits="userSpaceOnUse">
<stop stop-color="white" stop-opacity="0"/>
<stop offset="0.95" stop-color="white"/>
</linearGradient>
<linearGradient id="paint10_linear_69_273" x1="51.7812" y1="52.4756" x2="31.8231" y2="49.778" gradientUnits="userSpaceOnUse">
<stop stop-color="#010101" stop-opacity="0"/>
<stop offset="0.47" stop-color="#010101" stop-opacity="0.47"/>
<stop offset="0.95" stop-color="#010101"/>
</linearGradient>
<linearGradient id="paint11_linear_69_273" x1="49.682" y1="44.8717" x2="45.7491" y2="47.2058" gradientUnits="userSpaceOnUse">
<stop stop-color="white" stop-opacity="0"/>
<stop offset="0.95" stop-color="white"/>
</linearGradient>
<clipPath id="clip0_69_273">
<rect width="50" height="65.0754" fill="white" transform="translate(20.1094) rotate(18)"/>
</clipPath>
</defs>
</svg>
