<svg width="156" height="100" viewBox="0 0 156 100" fill="none" xmlns="http://www.w3.org/2000/svg">
<g clip-path="url(#clip0_71_235)">
<path opacity="0.3" d="M122.95 7.19947C139.285 12.4795 151.95 27.3295 155.245 45.8945C158.015 61.5395 153.415 80.7795 126.575 89.7095C99.18 98.8295 22.575 103.209 8.32997 77.8545C-5.91503 52.4995 -2.91504 19.9245 26.295 8.36947C46.77 0.294467 91.045 -3.13053 122.95 7.19947Z" fill="#E6E6E6"/>
<path d="M143.925 73.2845C143.925 73.2845 138.725 48.8245 125.645 48.8245C112.565 48.8245 105.605 87.2745 137.425 91.4595L143.925 73.2845Z" fill="#F4A28C"/>
<path opacity="0.1" d="M143.925 73.2845C143.925 73.2845 138.725 48.8245 125.645 48.8245C112.565 48.8245 105.605 87.2745 137.425 91.4595L143.925 73.2845Z" fill="black"/>
<path d="M12.075 73.2845C12.075 73.2845 17.275 48.8245 30.3549 48.8245C43.4349 48.8245 50.395 87.2745 18.575 91.4595L12.075 73.2845Z" fill="#F4A28C"/>
<path opacity="0.1" d="M12.075 73.2845C12.075 73.2845 17.275 48.8245 30.3549 48.8245C43.4349 48.8245 50.395 87.2745 18.575 91.4595L12.075 73.2845Z" fill="black"/>
<path d="M135.865 8.70447H23.52V80.8895H135.865V8.70447Z" fill="#68E1FD"/>
<path opacity="0.46" d="M135.865 8.70447H23.52V80.8845H135.865V8.70447Z" fill="white"/>
<path d="M126.735 15.1445H32.655V73.2845H126.735V15.1445Z" fill="white"/>
<path d="M122.225 21.7894H101.125V35.2894H122.225V21.7894Z" fill="#C9C9C9"/>
<path d="M122.225 37.5145H101.125V51.0145H122.225V37.5145Z" fill="#C9C9C9"/>
<path d="M122.225 53.2394H101.125V66.7394H122.225V53.2394Z" fill="#C9C9C9"/>
<path d="M95.6201 21.4844H36.8101V66.5094H95.6201V21.4844Z" fill="#FFD200"/>
<path opacity="0.1" d="M42.08 64.5695C39.935 69.5245 33.425 72.5445 33.33 79.0695C33.33 79.6745 33.33 80.2895 33.33 80.9045H23.5V78.1445L38.625 56.2795C38.625 56.2795 44.22 59.6095 42.08 64.5695Z" fill="black"/>
<path d="M22.325 64.2044C22.325 64.2044 32.42 53.8744 36.78 54.7944C40.375 55.5494 40.38 62.7094 32.54 68.6744C30.9501 69.8729 29.6363 71.3989 28.6874 73.1492C27.7385 74.8995 27.1767 76.8332 27.04 78.8194C26.815 82.1544 25.715 86.1144 22.335 89.1144C15.22 95.4094 9.93997 89.9244 10.63 81.4244C11.32 72.9244 11.765 70.3994 22.325 64.2044Z" fill="#F4A28C"/>
<path d="M28.3 99.9545L28.96 90.8095L9.68496 84.9645L5.20996 99.9545H28.3Z" fill="#68E1FD"/>
<path opacity="0.1" d="M28.3 99.9545L28.96 90.8095L19.76 88.0195L18.24 99.9545H28.3Z" fill="black"/>
<path d="M133.675 64.2045C133.675 64.2045 123.58 53.8695 119.22 54.7945C115.625 55.5495 115.62 62.7095 123.46 68.6745C125.05 69.8729 126.364 71.399 127.313 73.1492C128.261 74.8995 128.823 76.8332 128.96 78.8195C129.185 82.1545 130.285 86.1145 133.665 89.1145C140.78 95.4095 146.06 89.9245 145.37 81.4245C144.68 72.9245 144.235 70.3995 133.675 64.2045Z" fill="#F4A28C"/>
<path d="M150.79 99.9545L146.315 84.9645L127.04 90.8095L127.7 99.9545H150.79Z" fill="#68E1FD"/>
<path opacity="0.1" d="M137.76 99.9545L136.24 88.0195L127.04 90.8095L127.7 99.9545H137.76Z" fill="black"/>
<path opacity="0.1" d="M27.8351 55.8695C28.6773 55.8695 29.3601 55.1867 29.3601 54.3445C29.3601 53.5022 28.6773 52.8195 27.8351 52.8195C26.9928 52.8195 26.3101 53.5022 26.3101 54.3445C26.3101 55.1867 26.9928 55.8695 27.8351 55.8695Z" fill="black"/>
<path opacity="0.1" d="M27.3051 34.2445V49.3195C27.3051 49.6067 27.5379 49.8395 27.8251 49.8395H28.1701C28.4572 49.8395 28.6901 49.6067 28.6901 49.3195V34.2445C28.6901 33.9573 28.4572 33.7245 28.1701 33.7245H27.8251C27.5379 33.7245 27.3051 33.9573 27.3051 34.2445Z" fill="black"/>
<path d="M131.825 47.0494C133.07 47.0494 134.08 46.0398 134.08 44.7944C134.08 43.549 133.07 42.5394 131.825 42.5394C130.58 42.5394 129.57 43.549 129.57 44.7944C129.57 46.0398 130.58 47.0494 131.825 47.0494Z" fill="#24285B"/>
<path d="M70.8101 30.7695C70.8101 30.7695 77.5601 33.7145 82.7301 41.3545C87.9001 48.9945 101.38 46.4545 103.85 34.7245C103.85 34.7245 104.85 29.2245 106.66 29.4445C108.47 29.6645 106.66 33.5995 106.66 33.5995C106.66 33.5995 109.13 33.7145 108.91 35.6245C108.69 37.5345 105.65 39.3295 105.65 39.3295C105.65 39.3295 100.37 62.6995 74.6501 48.5445L70.8101 30.7695Z" fill="#F4A28C"/>
<path d="M67.2101 21.8194C67.2101 21.8194 70.9701 28.0994 66.6601 29.7094C62.3501 31.3194 62.5401 19.9944 62.5401 19.9944L67.2101 21.8194Z" fill="#24285B"/>
<path d="M57.8101 28.1245C57.8101 28.1245 45.6251 33.6645 45.7751 42.4195C45.9251 51.1745 55.1351 66.5094 55.1351 66.5094H74.7401V56.3694C74.7401 53.2416 75.4226 50.1514 76.7401 47.3144C78.7401 43.0344 79.8151 35.1144 66.4351 28.1344L57.8101 28.1245Z" fill="#68E1FD"/>
<path d="M60.13 29.6194C60.13 29.6194 65.01 33.0144 66.46 28.1194H61.96L60.13 29.6194Z" fill="white"/>
<path d="M66.065 17.2494C66.6526 18.5014 67.0696 19.8266 67.305 21.1894C67.3223 21.353 67.3071 21.5183 67.2604 21.676C67.2137 21.8337 67.1364 21.9806 67.0328 22.1083C66.9292 22.2361 66.8015 22.3421 66.6568 22.4204C66.5122 22.4986 66.3535 22.5476 66.19 22.5644C65.6655 22.6487 65.1279 22.5803 64.6412 22.3676C64.1545 22.1548 63.7393 21.8066 63.445 21.3644L62 19.5844C61.747 19.1974 61.6202 18.7414 61.6373 18.2793C61.6543 17.8173 61.8142 17.3718 62.095 17.0044C63.055 15.5744 65.5 15.8694 66.065 17.2494Z" fill="#F4A28C"/>
<path d="M62.54 19.9944L61.955 28.1244H66.46L65.11 22.3544L62.54 19.9944Z" fill="#F4A28C"/>
<path d="M66.66 18.6995L67.66 19.3595C67.7168 19.3956 67.7636 19.4455 67.796 19.5044C67.8284 19.5634 67.8453 19.6297 67.8453 19.697C67.8453 19.7643 67.8284 19.8305 67.796 19.8895C67.7636 19.9485 67.7168 19.9983 67.66 20.0345L66.83 20.5345L66.66 18.6995Z" fill="#F4A28C"/>
<path opacity="0.31" d="M65.15 22.5195C64.6055 22.4241 64.0972 22.1821 63.68 21.8195C63.68 21.8195 63.39 23.5795 65.535 24.1745L65.15 22.5195Z" fill="#CE8172"/>
<path d="M64.4151 18.4544L63.3651 18.8144C63.3651 18.8144 64.5101 23.3144 62.9951 27.1994C62.7614 27.7731 62.3991 28.2855 61.9361 28.697C61.4731 29.1085 60.9218 29.4082 60.3247 29.5729C59.7275 29.7376 59.1006 29.763 58.4921 29.6472C57.8836 29.5313 57.3098 29.2772 56.8151 28.9044L55.8951 28.2244C55.6451 28.0384 55.4452 27.7934 55.3132 27.5112C55.1811 27.229 55.1211 26.9185 55.1384 26.6074C55.1558 26.2963 55.2499 25.9944 55.4125 25.7286C55.5751 25.4629 55.801 25.2415 56.0701 25.0844C57.7751 24.0844 59.5701 22.2744 59.2251 19.2144C58.8401 15.6094 62.1051 13.4344 64.4601 14.0194C64.9539 14.1475 65.3907 14.4371 65.7009 14.8421C66.0111 15.2472 66.1768 15.7444 66.1716 16.2545C66.1665 16.7647 65.9907 17.2585 65.6724 17.6571C65.354 18.0558 64.9114 18.3365 64.4151 18.4544Z" fill="#24285B"/>
<path d="M64.0001 19.8945C64.0001 19.8945 63.6501 18.9995 63.0001 19.3195C62.3501 19.6395 62.8501 20.9295 63.8101 20.7095L64.0001 19.8945Z" fill="#F4A28C"/>
<path d="M72.505 47.6844H67.285V55.3994H72.505V47.6844Z" fill="#FFD200"/>
<path opacity="0.08" d="M56.9351 34.8694C56.9351 34.8694 63.2851 40.2194 59.5251 46.4544C55.7651 52.6894 56.9151 59.1594 64.0251 57.6944L71.115 56.2294C71.115 56.2294 74.4951 62.0044 68.115 63.0344L69.0301 66.4994H55.1351L53.575 62.8694L50.8751 58.3294L44.5551 53.1244L56.9351 34.8694Z" fill="black"/>
<path d="M57.35 36.5495C57.2898 35.6562 56.9831 34.7971 56.4638 34.0677C55.9446 33.3383 55.2332 32.7673 54.4089 32.418C53.5845 32.0688 52.6794 31.955 51.7942 32.0895C50.909 32.2239 50.0785 32.6012 49.395 33.1795C46.815 35.3545 44.115 38.5795 43.07 43.0395C40.82 52.5895 39.94 60.9045 45.775 62.9245C51.61 64.9445 67.315 58.8695 67.315 58.8695C67.315 58.8695 72.17 58.8695 72.505 55.3695C72.84 51.8695 67.955 53.1995 66.66 56.3695C66.66 56.3695 47.66 61.9845 50.16 52.8695C52.06 45.8695 57.81 43.1745 57.35 36.5495Z" fill="#F4A28C"/>
<path d="M107.301 38.6358L102.59 36.8012L101.857 38.6835L106.568 40.5181L107.301 38.6358Z" fill="#68E1FD"/>
<path d="M63.365 18.8145L68.14 17.6995C68.14 17.6995 66.64 12.6445 62.54 14.0945L63.365 18.8145Z" fill="#24285B"/>
<path d="M95.6201 61.8445H36.8101V66.5095H95.6201V61.8445Z" fill="#24285B"/>
<path opacity="0.46" d="M92.6099 63.8694H39.8199V64.4894H92.6099V63.8694Z" fill="white"/>
<path d="M51.995 65.9695C52.9835 65.9695 53.785 65.1681 53.785 64.1795C53.785 63.1909 52.9835 62.3895 51.995 62.3895C51.0064 62.3895 50.205 63.1909 50.205 64.1795C50.205 65.1681 51.0064 65.9695 51.995 65.9695Z" fill="#FFD200"/>
</g>
<defs>
<clipPath id="clip0_71_235">
<rect width="156" height="100" fill="white"/>
</clipPath>
</defs>
</svg>
