<svg width="331" height="341" viewBox="0 0 331 341" fill="none" xmlns="http://www.w3.org/2000/svg">
<g clip-path="url(#clip0_22_315)">
<path d="M189.6 200.757V251.157H63.4749C49.1047 251.157 37.413 239.852 37.413 225.957C37.413 212.062 49.1047 200.757 63.4749 200.757H189.6Z" fill="#F2F2F2"/>
<path d="M192.698 250.77C192.697 251.284 192.493 251.777 192.13 252.14C191.767 252.504 191.275 252.708 190.761 252.708H61.2284C54.1933 252.708 47.4462 249.91 42.4716 244.93C37.497 239.949 34.7023 233.194 34.7023 226.151C34.7023 219.108 37.497 212.353 42.4716 207.372C47.4462 202.392 54.1933 199.594 61.2284 199.594H190.761C191.275 199.594 191.767 199.798 192.13 200.162C192.494 200.525 192.698 201.018 192.698 201.532C192.698 202.046 192.494 202.539 192.13 202.903C191.767 203.266 191.275 203.471 190.761 203.471H61.2284C55.2203 203.471 49.4582 205.86 45.2098 210.114C40.9614 214.367 38.5747 220.136 38.5747 226.151C38.5747 232.166 40.9614 237.935 45.2098 242.188C49.4582 246.442 55.2203 248.831 61.2284 248.831H190.761C191.275 248.831 191.767 249.036 192.13 249.399C192.493 249.763 192.697 250.256 192.698 250.77Z" fill="#1522F1"/>
<path d="M189.6 212.388H54.0645C53.9618 212.388 53.8633 212.347 53.7907 212.274C53.7181 212.201 53.6772 212.103 53.6772 212C53.6772 211.897 53.7181 211.799 53.7907 211.726C53.8633 211.653 53.9618 211.612 54.0645 211.612H189.6C189.702 211.612 189.801 211.653 189.873 211.726C189.946 211.799 189.987 211.897 189.987 212C189.987 212.103 189.946 212.201 189.873 212.274C189.801 212.347 189.702 212.388 189.6 212.388Z" fill="#CCCCCC"/>
<path d="M189.6 221.692H54.0645C53.9618 221.692 53.8633 221.652 53.7907 221.579C53.7181 221.506 53.6772 221.408 53.6772 221.305C53.6772 221.202 53.7181 221.103 53.7907 221.031C53.8633 220.958 53.9618 220.917 54.0645 220.917H189.6C189.702 220.917 189.801 220.958 189.873 221.031C189.946 221.103 189.987 221.202 189.987 221.305C189.987 221.408 189.946 221.506 189.873 221.579C189.801 221.652 189.702 221.692 189.6 221.692Z" fill="#CCCCCC"/>
<path d="M189.6 230.997H54.0645C53.9618 230.997 53.8633 230.956 53.7907 230.884C53.7181 230.811 53.6772 230.712 53.6772 230.609C53.6772 230.507 53.7181 230.408 53.7907 230.335C53.8633 230.263 53.9618 230.222 54.0645 230.222H189.6C189.702 230.222 189.801 230.263 189.873 230.335C189.946 230.408 189.987 230.507 189.987 230.609C189.987 230.712 189.946 230.811 189.873 230.884C189.801 230.956 189.702 230.997 189.6 230.997Z" fill="#CCCCCC"/>
<path d="M189.6 240.302H54.0645C53.9618 240.302 53.8633 240.261 53.7907 240.188C53.7181 240.116 53.6772 240.017 53.6772 239.914C53.6772 239.811 53.7181 239.713 53.7907 239.64C53.8633 239.567 53.9618 239.526 54.0645 239.526H189.6C189.702 239.526 189.801 239.567 189.873 239.64C189.946 239.713 189.987 239.811 189.987 239.914C189.987 240.017 189.946 240.116 189.873 240.188C189.801 240.261 189.702 240.302 189.6 240.302Z" fill="#CCCCCC"/>
<path d="M287.075 210.244L255.49 249.49L157.279 170.264C146.089 161.237 144.07 145.09 152.778 134.27C161.486 123.45 177.675 121.992 188.865 131.018L287.075 210.244Z" fill="#F2F2F2"/>
<path d="M258.145 251.134C257.823 251.534 257.355 251.79 256.845 251.845C256.334 251.9 255.823 251.75 255.423 251.427L154.558 170.061C149.08 165.641 145.58 159.225 144.827 152.221C144.075 145.218 146.132 138.203 150.546 132.718C154.96 127.234 161.369 123.73 168.364 122.976C175.359 122.223 182.366 124.282 187.844 128.701L288.709 210.068C288.907 210.228 289.072 210.425 289.194 210.648C289.316 210.872 289.393 211.117 289.42 211.37C289.448 211.624 289.425 211.88 289.353 212.124C289.281 212.368 289.162 212.596 289.003 212.795C288.843 212.993 288.646 213.158 288.423 213.28C288.2 213.402 287.955 213.479 287.702 213.506C287.449 213.533 287.193 213.51 286.949 213.438C286.705 213.366 286.477 213.247 286.279 213.087L185.415 131.72C183.098 129.85 180.437 128.455 177.582 127.615C174.727 126.775 171.735 126.507 168.776 126.825C165.817 127.143 162.95 128.041 160.338 129.469C157.727 130.897 155.421 132.826 153.554 135.145C151.687 137.465 150.295 140.131 149.457 142.989C148.619 145.848 148.352 148.844 148.671 151.806C148.99 154.768 149.889 157.638 151.316 160.252C152.743 162.866 154.67 165.173 156.988 167.042L257.853 248.408C258.252 248.731 258.508 249.199 258.563 249.711C258.618 250.222 258.467 250.734 258.145 251.134Z" fill="#CCCCCC"/>
<path d="M279.787 219.301L174.248 134.164C174.208 134.132 174.176 134.092 174.151 134.048C174.127 134.003 174.111 133.954 174.106 133.903C174.101 133.853 174.105 133.802 174.119 133.753C174.134 133.704 174.158 133.658 174.189 133.619C174.221 133.579 174.261 133.546 174.305 133.522C174.35 133.497 174.399 133.482 174.45 133.476C174.5 133.471 174.551 133.476 174.6 133.49C174.649 133.504 174.694 133.528 174.734 133.56L280.273 218.697C280.312 218.729 280.345 218.768 280.37 218.813C280.394 218.858 280.409 218.907 280.415 218.958C280.42 219.008 280.416 219.059 280.402 219.108C280.387 219.157 280.363 219.203 280.332 219.243C280.3 219.282 280.26 219.315 280.215 219.34C280.171 219.364 280.122 219.379 280.071 219.385C280.021 219.39 279.969 219.386 279.921 219.371C279.872 219.357 279.826 219.333 279.787 219.301Z" fill="#CCCCCC"/>
<path d="M273.955 226.546L168.417 141.409C168.337 141.345 168.286 141.251 168.275 141.149C168.264 141.047 168.294 140.944 168.359 140.864C168.423 140.784 168.517 140.733 168.619 140.722C168.721 140.711 168.823 140.741 168.903 140.805L274.441 225.942C274.481 225.974 274.514 226.014 274.538 226.059C274.563 226.103 274.578 226.152 274.584 226.203C274.589 226.254 274.585 226.305 274.57 226.354C274.556 226.403 274.532 226.448 274.5 226.488C274.468 226.528 274.429 226.561 274.384 226.585C274.34 226.609 274.291 226.625 274.24 226.63C274.189 226.636 274.138 226.631 274.089 226.617C274.041 226.602 273.995 226.578 273.955 226.546Z" fill="#CCCCCC"/>
<path d="M268.124 233.792L162.586 148.655C162.506 148.59 162.455 148.496 162.444 148.394C162.433 148.292 162.463 148.19 162.527 148.109C162.592 148.029 162.685 147.978 162.787 147.967C162.889 147.956 162.992 147.986 163.072 148.051L268.61 233.188C268.65 233.22 268.683 233.259 268.707 233.304C268.731 233.349 268.747 233.398 268.752 233.448C268.758 233.499 268.753 233.55 268.739 233.599C268.724 233.648 268.701 233.693 268.669 233.733C268.637 233.773 268.597 233.806 268.553 233.83C268.508 233.854 268.459 233.87 268.409 233.875C268.358 233.881 268.307 233.876 268.258 233.862C268.209 233.847 268.164 233.824 268.124 233.792Z" fill="#CCCCCC"/>
<path d="M262.293 241.037L156.755 155.9C156.715 155.868 156.682 155.829 156.658 155.784C156.633 155.739 156.618 155.69 156.613 155.64C156.607 155.589 156.612 155.538 156.626 155.489C156.64 155.44 156.664 155.394 156.696 155.355C156.728 155.315 156.767 155.282 156.812 155.258C156.857 155.233 156.906 155.218 156.956 155.213C157.007 155.207 157.058 155.212 157.107 155.226C157.155 155.24 157.201 155.264 157.241 155.296L262.779 240.433C262.819 240.465 262.852 240.505 262.876 240.549C262.901 240.594 262.916 240.643 262.922 240.694C262.927 240.744 262.922 240.796 262.908 240.845C262.894 240.893 262.87 240.939 262.838 240.979C262.806 241.018 262.767 241.051 262.722 241.076C262.677 241.1 262.628 241.116 262.578 241.121C262.527 241.126 262.476 241.122 262.427 241.107C262.378 241.093 262.333 241.069 262.293 241.037Z" fill="#CCCCCC"/>
<path d="M293.724 253.096H6.38932C6.28662 253.096 6.18812 253.055 6.1155 252.982C6.04287 252.91 6.00208 252.811 6.00208 252.708C6.00208 252.605 6.04287 252.507 6.1155 252.434C6.18812 252.361 6.28662 252.32 6.38932 252.32H293.724C293.827 252.32 293.925 252.361 293.998 252.434C294.07 252.507 294.111 252.605 294.111 252.708C294.111 252.811 294.07 252.91 293.998 252.982C293.925 253.055 293.827 253.096 293.724 253.096Z" fill="#CCCCCC"/>
<path d="M136.922 195.459L132.495 195.459L130.389 178.363L136.923 178.364L136.922 195.459Z" fill="#C0755D"/>
<path d="M129.332 194.193H137.87V199.575H123.957C123.957 198.868 124.096 198.168 124.366 197.515C124.636 196.862 125.032 196.269 125.531 195.769C126.03 195.269 126.623 194.873 127.275 194.602C127.927 194.332 128.626 194.193 129.332 194.193Z" fill="#2F2E41"/>
<path d="M91.6937 195.459L87.2667 195.459L85.1613 178.363L91.6952 178.364L91.6937 195.459Z" fill="#C0755D"/>
<path d="M84.1043 194.193H92.6422V199.575H78.7286C78.7286 198.868 78.8677 198.168 79.1378 197.515C79.408 196.862 79.804 196.269 80.3031 195.769C80.8023 195.269 81.3949 194.873 82.0471 194.602C82.6993 194.332 83.3984 194.193 84.1043 194.193Z" fill="#2F2E41"/>
<path d="M106.48 68.6482V66.7097C106.48 63.3936 107.796 60.2134 110.138 57.8686C112.48 55.5238 115.657 54.2065 118.969 54.2065C122.281 54.2065 125.458 55.5238 127.8 57.8686C130.142 60.2134 131.458 63.3936 131.458 66.7097V68.6482C131.458 71.0388 130.509 73.3316 128.821 75.022C127.132 76.7125 124.842 77.6621 122.454 77.6621H115.484C114.302 77.6621 113.131 77.429 112.038 76.976C110.946 76.523 109.954 75.859 109.118 75.022C108.281 74.185 107.618 73.1913 107.166 72.0977C106.713 71.0041 106.48 69.8319 106.48 68.6482Z" fill="#2F2E41"/>
<path d="M118.969 78.3292C124.222 78.3292 128.48 74.0659 128.48 68.8069C128.48 63.548 124.222 59.2847 118.969 59.2847C113.716 59.2847 109.458 63.548 109.458 68.8069C109.458 74.0659 113.716 78.3292 118.969 78.3292Z" fill="#C0755D"/>
<path d="M67.2348 101.534C67.6208 101.169 68.082 100.893 68.5859 100.726C69.0898 100.559 69.6242 100.504 70.1514 100.566C70.6787 100.628 71.1859 100.805 71.6374 101.085C72.0889 101.364 72.4737 101.739 72.7647 102.184L80.918 100.64L83.0637 105.371L71.5191 107.39C70.7408 107.83 69.8284 107.969 68.9547 107.78C68.0811 107.592 67.3068 107.089 66.7787 106.367C66.2506 105.645 66.0054 104.754 66.0894 103.864C66.1735 102.973 66.581 102.144 67.2348 101.534Z" fill="#C0755D"/>
<path d="M111.661 84.4877L98.2907 93.3056L75.7305 100.518C75.4315 100.614 75.175 100.811 75.0047 101.075C74.8344 101.34 74.7608 101.655 74.7965 101.967L75.2887 106.211C75.3105 106.399 75.3713 106.58 75.4672 106.743C75.563 106.906 75.6918 107.047 75.8453 107.157C75.9988 107.268 76.1736 107.344 76.3585 107.383C76.5434 107.422 76.7344 107.421 76.9191 107.382L98.1515 102.825C99.1791 102.606 100.151 102.178 101.006 101.567L116.026 90.8676C116.571 90.4776 117.005 89.9532 117.288 89.3453C117.57 88.7374 117.69 88.0668 117.637 87.3987C117.582 86.7296 117.354 86.0864 116.975 85.5323C116.596 84.9783 116.08 84.5325 115.477 84.2388C114.874 83.945 114.205 83.8135 113.536 83.8572C112.867 83.9008 112.22 84.1181 111.661 84.4877Z" fill="#FECF63"/>
<path d="M132.574 190.608C132.234 190.608 131.902 190.509 131.617 190.323C131.332 190.137 131.108 189.872 130.972 189.561L110.676 139.354C110.629 139.245 110.549 139.153 110.448 139.091C110.347 139.029 110.229 138.999 110.111 139.005C109.993 139.012 109.879 139.055 109.786 139.128C109.692 139.201 109.623 139.302 109.589 139.415L93.0306 188.293C92.9607 188.521 92.8451 188.732 92.6908 188.913C92.5366 189.094 92.347 189.241 92.1336 189.346C91.9203 189.451 91.6878 189.511 91.4504 189.523C91.2129 189.535 90.9756 189.498 90.753 189.414L85.2006 187.33C84.8992 187.217 84.6348 187.024 84.4368 186.77C84.2387 186.517 84.1148 186.213 84.0787 185.893C81.5809 164.108 103.363 109.118 103.584 108.565L103.645 108.412L123.502 112.81L123.543 112.855C131.465 121.507 137.977 176.081 139.202 186.933C139.247 187.325 139.158 187.721 138.949 188.056C138.74 188.39 138.423 188.643 138.051 188.773L133.15 190.509C132.965 190.574 132.77 190.608 132.574 190.608Z" fill="#2F2E41"/>
<path d="M115.465 114.58C110.654 114.58 105.291 113.619 103.64 109.656L103.602 109.565L103.653 109.48C104.956 107.339 106.678 103.688 105.753 103.002C103.929 101.652 103.044 99.4316 103.123 96.4016C103.293 89.824 107.77 83.9841 114.262 81.8698C116.074 81.2892 117.919 80.8138 119.785 80.446C121.146 80.1711 122.551 80.2013 123.899 80.5346C125.247 80.8679 126.505 81.4959 127.582 82.3735C128.672 83.2569 129.553 84.3712 130.162 85.6361C130.771 86.9011 131.093 88.2854 131.104 89.6896C131.172 96.7189 130.091 106.509 124.555 113.231C124.295 113.542 123.934 113.753 123.535 113.824C120.872 114.307 118.172 114.559 115.465 114.58Z" fill="#FECF63"/>
<path d="M113.676 114.316C113.937 113.376 114.559 112.577 115.406 112.093C116.253 111.61 117.256 111.48 118.198 111.733C118.39 111.787 118.578 111.856 118.759 111.941L124.949 106.3L129.255 109.204L120.402 117.047C120.002 117.769 119.373 118.336 118.614 118.658C117.855 118.981 117.01 119.039 116.214 118.826C115.751 118.699 115.317 118.481 114.937 118.185C114.558 117.889 114.242 117.52 114.006 117.101C113.769 116.682 113.619 116.22 113.562 115.742C113.505 115.264 113.544 114.779 113.676 114.316Z" fill="#C0755D"/>
<path d="M123.969 114.388C123.567 114.388 123.178 114.249 122.867 113.994L120.426 111.997C120.222 111.831 120.059 111.62 119.948 111.382C119.837 111.143 119.782 110.882 119.786 110.619C119.79 110.356 119.853 110.097 119.971 109.862C120.09 109.627 120.259 109.422 120.468 109.262L130.707 101.399C130.829 101.306 130.908 101.168 130.929 101.016C130.949 100.864 130.909 100.71 130.817 100.587L124.497 92.2223C123.763 91.2537 123.394 90.0562 123.457 88.8418C123.52 87.6275 124.01 86.4746 124.841 85.5872C125.715 84.6415 126.913 84.0596 128.196 83.9569C129.479 83.8541 130.754 84.238 131.768 85.0325L131.808 85.0747L138.407 94.5354C139.121 95.0956 139.695 95.8134 140.086 96.6326C140.477 97.4519 140.673 98.3506 140.659 99.2584C140.646 100.166 140.423 101.059 140.008 101.866C139.593 102.673 138.997 103.373 138.267 103.912L125.006 114.046C124.706 114.268 124.342 114.388 123.969 114.388Z" fill="#FECF63"/>
<path d="M110.544 66.1282V61.4036L118.969 57.7205L127.002 61.4036V66.1282C127.002 66.3338 126.921 66.531 126.775 66.6764C126.63 66.8219 126.433 66.9036 126.228 66.9036H111.319C111.113 66.9036 110.916 66.8219 110.771 66.6764C110.626 66.531 110.544 66.3338 110.544 66.1282Z" fill="#2F2E41"/>
<path d="M65.4881 83.2061C59.8307 83.1689 54.2441 81.9439 49.0891 79.6103C48.7822 79.4733 48.5217 79.25 48.3394 78.9675C48.1571 78.685 48.0607 78.3555 48.0621 78.0192V63.9001C48.0627 63.4375 48.2464 62.994 48.5731 62.667C48.8998 62.3399 49.3427 62.1559 49.8047 62.1554H81.1715C81.6335 62.1559 82.0764 62.3399 82.4031 62.667C82.7298 62.9941 82.9135 63.4375 82.9141 63.9001V78.0192C82.9155 78.3555 82.8191 78.685 82.6368 78.9675C82.4545 79.25 82.194 79.4734 81.8871 79.6103C76.7321 81.9439 71.1455 83.1689 65.4881 83.2061Z" fill="#1522F1"/>
<path d="M65.4838 71.7679C65.2513 71.7681 65.021 71.7218 64.8066 71.6316L39.9332 61.1252C39.6125 60.9897 39.3396 60.7612 39.1498 60.469C38.96 60.1768 38.862 59.8344 38.8683 59.4859C38.8747 59.1374 38.9852 58.7988 39.1856 58.5138C39.386 58.2288 39.667 58.0104 39.9925 57.8868L64.8662 48.4395C65.2669 48.2866 65.7098 48.2876 66.1098 48.4421L90.6502 57.8894C90.9739 58.014 91.253 58.2325 91.452 58.5168C91.6509 58.8012 91.7606 59.1385 91.767 59.4856C91.7734 59.8327 91.6763 60.1738 91.488 60.4653C91.2996 60.7568 91.0287 60.9855 90.7099 61.122L66.1692 71.6282C65.9525 71.7206 65.7193 71.7681 65.4838 71.7679Z" fill="#1522F1"/>
<path d="M50.9665 80.571C52.2497 80.571 53.29 79.5295 53.29 78.2448C53.29 76.9601 52.2497 75.9186 50.9665 75.9186C49.6833 75.9186 48.6431 76.9601 48.6431 78.2448C48.6431 79.5295 49.6833 80.571 50.9665 80.571Z" fill="#3F3D56"/>
<path opacity="0.2" d="M90.7947 59.6307L66.2539 70.1369C66.0626 70.2188 65.8567 70.2613 65.6487 70.2618C65.4406 70.2623 65.2345 70.2208 65.0428 70.1398L40.1694 59.6337C39.8571 59.5049 39.5964 59.2756 39.4288 58.982C39.3191 59.1724 39.2511 59.384 39.2294 59.6027C39.2077 59.8214 39.2327 60.0423 39.3027 60.2506C39.3728 60.4589 39.4863 60.6499 39.6357 60.8109C39.7851 60.9719 39.9671 61.0993 40.1694 61.1845L65.0428 71.6906C65.2345 71.7716 65.4406 71.8131 65.6487 71.8126C65.8567 71.8121 66.0626 71.7696 66.2539 71.6877L90.7947 61.1814C90.996 61.0955 91.1769 60.9677 91.3253 60.8066C91.4737 60.6455 91.5862 60.4547 91.6556 60.2469C91.7249 60.039 91.7494 59.8188 91.7275 59.6008C91.7055 59.3827 91.6377 59.1718 91.5283 58.982C91.3619 59.2732 91.104 59.5013 90.7947 59.6307Z" fill="black"/>
<path d="M51.1618 78.2357C51.2645 78.2357 51.363 78.1949 51.4356 78.1221C51.5082 78.0494 51.549 77.9508 51.549 77.848V64.8751L64.3208 60.2169C64.4235 60.2184 64.5226 60.1791 64.5963 60.1074C64.67 60.0358 64.7123 59.9378 64.7138 59.835C64.7153 59.7322 64.676 59.6329 64.6045 59.5591C64.5329 59.4854 64.435 59.443 64.3323 59.4415L51.5606 64.0997C51.4578 64.0974 51.3556 64.1159 51.2602 64.1542C51.1648 64.1926 51.0781 64.2499 51.0055 64.3227C50.9321 64.3947 50.8738 64.4807 50.8342 64.5755C50.7945 64.6704 50.7742 64.7723 50.7745 64.8751V77.848C50.7745 77.9508 50.8153 78.0494 50.888 78.1221C50.9606 78.1948 51.0591 78.2357 51.1618 78.2357Z" fill="#3F3D56"/>
<ellipse cx="124.047" cy="53.5203" rx="5.50208" ry="4.5017" fill="#2F2E41"/>
<circle cx="266.601" cy="78.0295" r="4.00151" fill="#1522F1"/>
<circle cx="176.567" cy="99.0375" r="2.00076" fill="#EA5353"/>
<circle cx="39.5148" cy="147.056" r="4.00151" fill="#FECF63"/>
</g>
<path d="M286.721 320.727L204.969 272.771C203.978 272.162 202.984 273.17 203.313 274.442L220.063 339.212C220.279 340.048 220.99 340.585 221.652 340.414L286.664 323.601C287.778 323.313 287.821 321.402 286.721 320.727ZM255.285 317.833L229.953 324.384C229.804 324.403 229.654 324.363 229.534 324.274C229.414 324.184 229.334 324.052 229.309 323.904L222.514 297.631C222.38 297.111 222.784 296.703 223.188 296.959L255.313 316.674C255.76 316.949 255.741 317.715 255.285 317.833Z" fill="#0099F5"/>
<path d="M259.253 316.816L231.566 323.977L234.929 336.983L262.617 329.823L259.253 316.816Z" fill="#0099F5"/>
<path d="M209.84 291.351L207.821 291.874L208.122 293.039L210.142 292.516L209.84 291.351Z" fill="#24285B"/>
<path d="M212.901 303.188L210.882 303.71L211.183 304.875L213.203 304.352L212.901 303.188Z" fill="#24285B"/>
<path d="M212.901 303.188L210.882 303.71L211.183 304.875L213.203 304.352L212.901 303.188Z" fill="#24285B"/>
<path d="M215.962 315.022L213.942 315.544L214.243 316.709L216.263 316.186L215.962 315.022Z" fill="#24285B"/>
<path d="M215.962 315.022L213.942 315.544L214.243 316.709L216.263 316.186L215.962 315.022Z" fill="#24285B"/>
<path d="M219.022 326.855L217.003 327.378L217.304 328.543L219.324 328.02L219.022 326.855Z" fill="#24285B"/>
<path d="M306.931 43.9846C306.931 43.9846 305.33 46.2227 305.163 45.9652C304.995 45.7077 305.792 43.3854 305.792 43.3854L306.814 42.886L306.931 43.9846Z" fill="#24285B"/>
<path d="M323.389 3.39543L323.801 2.58735C323.974 2.24777 324.212 1.9456 324.502 1.69811C324.791 1.45062 325.127 1.26266 325.49 1.14496C325.852 1.02726 326.234 0.982134 326.614 1.01215C326.994 1.04217 327.365 1.14675 327.704 1.31992L327.916 1.42784C328.255 1.60096 328.557 1.83924 328.805 2.12907C329.052 2.41891 329.24 2.75462 329.357 3.11704C329.475 3.47946 329.52 3.8615 329.49 4.24133C329.46 4.62117 329.355 4.99137 329.182 5.33079L328.77 6.13992L323.389 3.39543Z" fill="#FFD44D"/>
<path d="M328.763 6.13509L323.385 3.39487L306.385 36.7589L311.763 39.4991L328.763 6.13509Z" fill="#F0457D"/>
<path d="M323.393 3.39759L328.769 6.13833L327.965 7.71635L327.405 8.81302L325.689 12.1835L320.311 9.44065L322.029 6.07122L322.588 4.97508L323.393 3.39759Z" fill="#24285B"/>
<path d="M311.757 39.4975L306.787 44.278C306.787 44.278 306.435 43.7544 305.613 43.7482L306.384 36.7584L311.757 39.4975Z" fill="#FFBEB3"/>
<circle cx="196.574" cy="39.0148" r="4.00151" fill="#FECF63"/>
<circle cx="91.5344" cy="23.0087" r="2.00076" fill="#EA5353"/>
<circle cx="5.50189" cy="242.092" r="5.00189" fill="#EA5353"/>
<defs>
<clipPath id="clip0_22_315">
<rect width="252.095" height="209.079" fill="white" transform="translate(35.0131 44.0167)"/>
</clipPath>
</defs>
</svg>
